<svg viewBox="0 0 250 250" width="128" height="128" xmlns="http://www.w3.org/2000/svg">
  <path fill="#212121" d="m 125,0 c -4.25443,0 -8.21022,1.9105763 -10.83984,3.8671875 -2.62963,1.9566115 -4.58849,4.0143625 -6.9336,6.3593745 -2.34503,2.345037 -4.4027,4.303899 -6.35937,6.933594 -1.37327,1.845629 -2.6879,4.363424 -3.3711,7.160156 C 70.30289,33.048496 50.103425,54.27856 45.880859,80 H 45 c -24.734366,0 -45,20.26563 -45,45 0,24.73437 20.265634,45 45,45 h 0.802734 l 16.000001,80 H 188.19727 l 16,-80 H 205 c 24.73437,0 45,-20.26563 45,-45 0,-24.73437 -20.26563,-45 -45,-45 h -0.88086 c -4.22257,-25.72144 -24.42203,-46.951504 -51.61523,-55.679688 -0.68322,-2.796744 -1.99784,-5.314575 -3.3711,-7.160156 -1.95664,-2.629627 -4.01441,-4.588535 -6.35937,-6.933594 -2.34506,-2.345065 -4.3039,-4.402724 -6.9336,-6.3593745 C 133.21015,1.910537 129.25441,0 125,0 Z m 0,5 c 2.97865,0 5.70871,1.281591 7.85547,2.878906 2.14676,1.597316 4.03781,3.537805 6.38281,5.882813 2.34496,2.345054 4.2855,4.236108 5.88281,6.382812 C 146.71841,22.291235 148,25.021332 148,28 c 0,0.121378 -0.0505,0.230808 -0.0547,0.351562 C 176.60371,36.369444 197.4161,58.527815 199.75391,85 H 205 c 22.03217,0 40,17.96783 40,40 0,22.03217 -17.96783,40 -40,40 h -4.90039 l -16,80 H 65.90039 l -16,-80 H 45 C 22.967834,165 5,147.03217 5,125 5,102.96783 22.967834,85 45,85 h 5.246095 C 52.5839,58.527815 73.396275,36.369445 102.05469,28.351562 102.05049,28.230808 102,28.121378 102,28 c 0,-2.978668 1.28158,-5.708718 2.87891,-7.855469 1.59732,-2.14675 3.53782,-4.037819 5.88281,-6.382812 2.34508,-2.344982 4.2361,-4.285516 6.38281,-5.882813 C 119.29125,6.28161 122.02136,5 125,5 Z" />
  <path fill="#eb0000" d="m 114.29705,17.297 c -4.6899,4.6899 -7.2972,7.2971 -7.2972,10.703 0,3.4059 2.6072,6.0129 7.2972,10.703 4.6899,4.6899 7.2971,7.2971 10.703,7.2971 3.4057,-4e-6 6.0129,-2.6072 10.703,-7.2971 4.6899,-4.6899 7.2971,-7.2971 7.2971,-10.703 0,-3.4059 -2.6072,-6.0129 -7.2971,-10.703 -4.6899,-4.6899 -7.2972,-7.2971 -10.703,-7.2971 -3.4057,0 -6.0129,2.6072 -10.703,7.2971 z" />
  <path fill="#212121" d="m45 90c-19.33 4e-6 -35 15.67-35 35s15.67 35 35 35h5l-4.2852-10h5l4.2852 10h20l-25-70zm-7.1426 30 4.2852 10h-5c-3.598-6.9999 0.71484-10 0.71484-10z" />
  <path fill="#212121" d="M 103.16797 32.992188 C 75.202593 40.856499 55 63.399554 55 90 L 80 160 L 125 160 L 125 150 C 163.66 150 195 123.137 195 90 C 195 63.399554 174.79741 40.856499 146.83203 32.992188 C 146.35383 34.026085 145.7655 34.989468 145.12109 35.855469 C 143.52371 38.002157 141.58323 39.893331 139.23828 42.238281 C 136.89324 44.583218 135.00212 46.523744 132.85547 48.121094 C 130.70882 49.718444 127.97875 50.999997 125 51 C 122.02122 51 119.29122 49.718473 117.14453 48.121094 C 114.99784 46.523714 113.10667 44.583231 110.76172 42.238281 C 108.41675 39.893263 106.4763 38.002117 104.87891 35.855469 C 104.2345 34.989484 103.64617 34.026087 103.16797 32.992188 z M 125 90 C 127.7614 90 130 92.2386 130 95 C 130 97.7614 127.7614 100 125 100 L 125 90 z " />
  <path fill="#212121" d="m200 90c0 34.797-31.302 62.55-70 64.781v5.2188h65c1.715-1.5363 3.0843-3.1499 4-5 0 0 0 5 6 5 19.33 0 35-15.67 35-35s-15.67-35-35-35zm16.143 30c5.2871 1.3643 3.8419 12.08-3.1426 10 1.7404-3.5467 2.6654-6.8423 3.1426-10z" />
  <path fill="#212121" d="m55 165 7 34.998h35.377c1.8739 0 3.2841-1.4165 3.1484-3.1777l-0.76562-9.9473c-0.14589-1.8973-1.8654-3.4551-3.8379-3.4551 1.9725 0 3.4516-1.5661 3.3008-3.5254l-0.84961-11.047c-0.16252-2.1116-1.9827-3.8457-4.0645-3.8457zm16.271 7.6074h12.641l0.875 7.2852h-12.373zm2.2383 14.266h12.115l0.80273 6.6973h-11.867z" />
  <path fill="#212121" d="m107.23 165c-2.0814 0-3.6613 1.7341-3.5312 3.8457l1.916 31.152h13.57l-0.24416-13.125h12.117l-0.24219 13.125h13.568l1.916-31.152c0.13002-2.1116-1.4499-3.8457-3.5312-3.8457zm11.449 7.6074h12.641l-0.13281 7.2852h-12.373z" />
  <path fill="#212121" d="m151.92 165-2.6934 34.998h13.57l1.5742-13.125h12.115l-2.0586 13.125h13.568l2.625-13.125c0.37946-1.8973-0.90674-3.4551-2.8789-3.4551 1.9722 0 3.8838-1.5661 4.2754-3.5254l2.209-11.047 0.76953-3.8457h-15.076l-2.3379 14.893h-12.373l1.7871-14.893z" />
  <path fill="#212121" d="m63 205 7 35.002h33.846l-0.48828-6.3535h-22.508l-1.0449-6.6523h16.838l-0.6875-6.9805h-17.244l-1.1504-7.3203h24.186l-0.59179-7.6953z" />
  <path fill="#212121" d="m105.92 205 2.1523 35.002h11.846l-0.2383-13.006h10.633l-0.24023 13.006h11.848l0.79882-13.006c0.11679-1.8973-1.1925-3.4473-2.9258-3.4473 1.7333 0 3.2345-1.5716 3.3555-3.5332l0.6836-11.119c0.13153-2.1392-1.254-3.8965-3.0977-3.8965zm13.494 7.6953h11.162l-0.13478 7.3242h-10.891z" />
  <path fill="#212121" d="m148.85 205-1.4258 18.549c-0.14703 1.9124 1.1231 3.4473 2.8359 3.4473h19.939l-1.0449 6.6523h-22.508l-0.48828 6.3535h30.885c1.6358 0 3.2394-1.3983 3.5879-3.1406l6.373-31.861h-13.354l-2.3574 15.02h-10.891l1.8008-15.02z" />
</svg>
