<?xml version="1.0" encoding="utf-8"?>
<!-- Generator: Adobe Illustrator 26.5.3, SVG Export Plug-In . SVG Version: 6.00 Build 0)  -->
<svg version="1.1" id="Layer_1" xmlns="http://www.w3.org/2000/svg" xmlns:xlink="http://www.w3.org/1999/xlink" x="0px" y="0px"
	 viewBox="0 0 612 612" style="enable-background:new 0 0 612 612;" xml:space="preserve">
<style type="text/css">
	.st0{fill:#D80000;}
	.st1{fill:#FFFFFF;}
</style>
<path class="st0" d="M282.4,612c-94.1,0-188.1,0-282.1,0c0-204,0-408,0-612c204,0,408,0,612,0c0,204,0,408,0,612
	C502.4,612,392.5,612,282.4,612 M115,317.5c0,15.3,0,30.5,0,45.9c44.7,0,89.3,0,133.9,0c0,44.7,0,89.2,0,133.7
	c38.3,0,76.5,0,114.8,0c0-44.6,0-89.2,0-133.8c44.6,0,89.1,0,133.7,0c0-38.2,0-76.4,0-114.7c-44.6,0-89.2,0-133.8,0
	c0-44.7,0-89.2,0-133.8c-38.3,0-76.5,0-114.8,0c0,44.6,0,89.2,0,133.8c-44.7,0-89.2,0-133.8,0C115,271.6,115,294.4,115,317.5z"/>
<path class="st1" d="M115,317.4c0-23,0-45.8,0-68.7c44.6,0,89.2,0,133.8,0c0-44.7,0-89.2,0-133.8c38.3,0,76.5,0,114.8,0
	c0,44.6,0,89.1,0,133.8c44.7,0,89.2,0,133.8,0c0,38.3,0,76.5,0,114.7c-44.6,0-89.1,0-133.7,0c0,44.6,0,89.2,0,133.8
	c-38.3,0-76.5,0-114.8,0c0-44.5,0-89,0-133.7c-44.7,0-89.2,0-133.9,0C115,348,115,332.8,115,317.4z"/>
</svg>
