<?xml version="1.0" encoding="utf-8"?>
<!-- Generator: Adobe Illustrator 26.5.3, SVG Export Plug-In . SVG Version: 6.00 Build 0)  -->
<svg version="1.1" id="Layer_1" xmlns="http://www.w3.org/2000/svg" xmlns:xlink="http://www.w3.org/1999/xlink" x="0px" y="0px"
	 viewBox="0 0 511.8 512" style="enable-background:new 0 0 511.8 512;" xml:space="preserve">
<style type="text/css">
	.st0{fill:#F7DF1E;}
	.st1{fill:#020100;}
	.st2{fill:#010100;}
</style>
<path class="st0" d="M475.9,513c-159,0-317.4,0-475.9,0C0,342.4,0,171.8,0,1.1c170.5,0,341,0,511.8,0c0,170.5,0,341.2,0,511.9
	C500.1,513,488.3,513,475.9,513 M319.7,444.8c4.7,4,9.1,8.5,14.2,11.8c26.3,16.9,55.1,20.1,84.9,13.3c46.4-10.6,60.8-48.6,50.1-87.2
	c-5-18.1-18-30.2-33.9-38.9c-14.1-7.7-29.1-13.8-43.6-20.9c-6.4-3.2-13-6.4-18.2-11.1c-12.3-11.1-7.4-31.2,8.5-35.4
	c12.4-3.2,23.5-0.4,32.1,9.7c2.5,2.9,4.5,6.1,7,9.6c12.4-7.9,24.8-15.9,37.1-23.9c-10.8-19.1-25.7-31.9-47-36.4
	c-13-2.7-26.2-3.2-39.2-0.4c-25.2,5.4-43.9,19.2-50.3,44.9c-6.5,26-1,49.6,19.7,68.2C352,358,365,364,378,369.9
	c11.3,5.1,22.7,10.2,33.7,16.1c9,4.8,13.5,12.9,12,23.3c-1.5,10.3-8.6,15.8-17.9,18.8c-21.6,7-44.2-1.3-58.1-21.2
	c-1.3-1.9-2.6-3.7-4-5.7c-13.1,7.6-25.9,15-39.7,23.1C309.3,431.1,314.2,437.7,319.7,444.8 M205.4,429.9
	c-17.1,0.4-24.3-12.2-31.6-24.7c-13.3,8-26.1,15.8-39.1,23.7c10,20.3,24.9,34.2,46.4,40.4c17.4,5,34.9,4.9,52.2,0
	c21.6-6.1,35.9-20,41.6-41.8c2.4-9.1,3.7-18.7,3.7-28.1c0.3-52.8,0.2-105.7,0.2-158.5c0-1.6,0-3.2,0-4.7c-16.4,0-32,0-48.1,0
	c0,2.2,0,4.1,0,6.1c0,51.3,0,102.7,0,154c0,3.8-0.2,7.7-0.6,11.5C228.5,422.7,221.6,429.1,205.4,429.9z"/>
<path class="st1" d="M319.4,444.5c-5.2-6.8-10.2-13.4-15.4-20.3c13.8-8,26.6-15.4,39.7-23.1c1.4,2,2.7,3.9,4,5.7
	c13.9,19.9,36.5,28.2,58.1,21.2c9.3-3,16.4-8.5,17.9-18.8c1.5-10.4-3.1-18.5-12-23.3c-11-5.9-22.4-10.9-33.7-16.1
	c-13.1-5.9-26-11.9-36.8-21.7c-20.7-18.6-26.1-42.3-19.7-68.2c6.4-25.7,25-39.5,50.3-44.9c13-2.8,26.2-2.4,39.2,0.4
	c21.3,4.5,36.2,17.4,47,36.4c-12.4,7.9-24.8,15.9-37.1,23.9c-2.5-3.5-4.6-6.7-7-9.6c-8.6-10.1-19.7-12.9-32.1-9.7
	c-15.9,4.1-20.8,24.3-8.5,35.4c5.2,4.7,11.8,7.9,18.2,11.1c14.4,7.2,29.4,13.3,43.6,20.9c15.9,8.6,28.8,20.7,33.9,38.9
	c10.7,38.6-3.6,76.5-50.1,87.2c-29.8,6.8-58.6,3.6-84.9-13.3C328.7,453.2,324.4,448.7,319.4,444.5z"/>
<path class="st2" d="M205.9,429.9c15.7-0.8,22.6-7.2,24.2-22.2c0.4-3.8,0.6-7.6,0.6-11.5c0-51.3,0-102.7,0-154c0-2,0-3.9,0-6.1
	c16.1,0,31.7,0,48.1,0c0,1.5,0,3.1,0,4.7c0,52.8,0.2,105.7-0.2,158.5c-0.1,9.4-1.3,19-3.7,28.1c-5.7,21.7-20,35.6-41.6,41.8
	c-17.4,4.9-34.9,5-52.2,0c-21.5-6.1-36.3-20-46.4-40.4c12.9-7.8,25.8-15.6,39.1-23.7C181.2,417.8,188.4,430.3,205.9,429.9z"/>
</svg>
