<?xml version="1.0" encoding="utf-8"?>
<!-- Generator: Adobe Illustrator 26.5.3, SVG Export Plug-In . SVG Version: 6.00 Build 0)  -->
<svg version="1.1" id="Layer_1" xmlns="http://www.w3.org/2000/svg" xmlns:xlink="http://www.w3.org/1999/xlink" x="0px" y="0px"
	 viewBox="0 0 300 187" style="enable-background:new 0 0 300 187;" xml:space="preserve">
<style type="text/css">
	.st0{fill:#012F55;}
	.st1{fill:#012F56;}
	.st2{fill:#49C6E8;}
	.st3{fill:#47704C;}
	.st4{fill:#96DBEC;}
</style>
<path class="st0" d="M46.5,1c10.6,17.2,20.6,34.4,30.8,51.5c10.5,17.7,21,35.4,31.5,53.1c0.3,0.5,0.7,1.1,2,1.5
	c0-14.9,0-29.9,0-44.8c0.5-0.2,0.9-0.3,1.4-0.5c1.1,1.5,2.3,2.9,3.3,4.5c10.7,16.6,21.3,33.3,32,49.9c2.3,3.5,2.4,6.2,0,9.9
	c-11.4,17.5-22.5,35.3-33.7,52.9c-0.8,1.2-1.8,2.3-3.5,4.4C89.1,149,68.2,115.1,47.3,81.2c-0.4,0.1-0.9,0.1-1.3,0.2
	c0,35.2,0,70.4,0,106.1C30.7,188,15.3,188,0,188C0,125.8,0,63.6,0,1C15.3,1,30.7,1,46.5,1z"/>
<path class="st0" d="M112.4,188c12.4-20.3,25.2-40.8,38.3-61c2.7-4.2,3-7.2,0.1-11.5c-13.1-19.8-25.8-39.9-38.6-59.9
	c-0.2-0.4-0.2-0.9-0.5-2c1.5-0.2,2.9-0.5,4.2-0.5c12.5,0,25-0.2,37.5,0.1c2.2,0.1,5.1,1.6,6.4,3.4c5.6,8,10.7,16.3,16.4,25.3
	c1.8-2,3.2-3.7,4.7-5.3c24.3-27.3,61.6-31.8,91.2-10.3c14.9,10.9,23.9,26,27.6,44.5c0.3,5,0.3,9.7,0,15c-2.8,4.6-6.1,7.3-11,5.9
	c-4.7-1.4-6.9-5.2-7.8-10c-0.5-2.4-1.5-5.6-3.3-6.6c-6.3-3.5-13-6.1-19.5-9.1c0,0,0,0,0-0.3c-0.7-1.1-1.4-1.9-2.1-2.7c0,0,0,0,0-0.3
	c-0.7-1.1-1.4-1.9-2-2.7c0,0,0,0,0-0.3c-0.8-1.2-1.6-2-2.6-2.9c-0.9-0.9-1.6-1.6-2.3-2.7c-2.3-1.9-4.3-4.2-6.8-4.8
	c-11.9-2.9-23-1.3-32.3,7.4c-1.8,1.7-2.8,4.3-4.1,6.4c0,0,0,0-0.3,0c-1,1.5-1.6,2.9-2.1,4.2c0,0,0.1,0.1-0.2,0.2
	c-4.3,7.4-4.5,14.2,0.2,21.5c12.7,19.5,25,39.3,37.5,59c-15,0-30,0-45.7-0.3c-6.5-9.2-12.4-18.2-19.1-28.3
	c-6.5,10.2-12.4,19.4-18.3,28.6C142.9,188,127.9,188,112.4,188z"/>
<path class="st0" d="M157.5,1c0.5,14.3,0.3,28.6,0.5,42.9c0.1,4.4-1.1,6.3-5.9,6.1c-11.8-0.3-23.6-0.2-35.5,0
	c-4.3,0.1-5.9-1.2-5.8-5.7c0.2-14.1,0.1-28.3,0.1-42.9C126.3,1,141.7,1,157.5,1z"/>
<path class="st1" d="M300,139.6c-0.4,1-0.7,1.6-1.2,2c-2,1.4-4,3.1-6.2,3.9c-0.7,0.2-3.4-2.4-3.2-2.9c0.9-2.2,2.3-4.4,4-6.2
	c1.8-1.9,4-3.3,6.3-5.2C300,133.7,300,136.4,300,139.6z"/>
<path class="st2" d="M206.1,110c-0.9-0.6-1.8-1.3-2.6-2.3c0.1-0.4,0-0.5,0.3-0.5c0.9-1.4,1.5-2.8,2.2-4.2c0,0,0,0,0.3-0.1
	c3.3-2.7,5.9-5.8,9.2-7.9c11-7.1,22.4-7,33.7-0.6c0.7,0.7,1.4,1.5,2.4,2.7c1,1.3,1.8,2.1,2.5,3c0,0,0-0.1,0,0.3
	c0.7,1.1,1.3,1.9,2,2.7c0,0,0,0,0,0.3c0.7,1.1,1.3,1.9,2,2.7c0,0,0,0,0,0c3.1,5.1,8.5,6.2,13.6,8c6.8,2.5,8.5,4.6,8,12
	c-3.1-1.6-5.8-3.1-8.6-4.4c-2.2-1-4.5-2.6-6.7-2.4c-6,0.6-9.9-1.5-12.3-6.9c-0.3-0.7-1-1.2-1.8-1.6c-0.3,0.2-0.3,0.4,0,0.1
	c-5.5-12.2-26.6-17.5-39.1-7.3c-0.3,0.2-0.1,1-0.1,1.6c0,0,0.1,0-0.3-0.3C207.9,105.5,205.3,106.5,206.1,110
	C206,110,206.1,110,206.1,110z"/>
<path class="st3" d="M256,102.6c-0.7-0.4-1.4-1.2-2.1-2.4C254.7,100.7,255.4,101.5,256,102.6z"/>
<path class="st3" d="M258.1,105.7c-0.7-0.4-1.4-1.2-2.1-2.4C256.7,103.7,257.4,104.5,258.1,105.7z"/>
<path class="st3" d="M254,99.6c-0.7-0.5-1.4-1.3-2.3-2.4C252.4,97.7,253.2,98.5,254,99.6z"/>
<path class="st4" d="M249.9,111c-1.8,4-5.2,2.1-7.6,1.6c-5.1-1.1-9.9-3.2-14.9-4.5c-8.9-2.3-15.8,1.4-21.8,7.7
	c-0.6,0.6-1.1,1.2-1.8,1.8c-0.2,0.2-0.6,0.1-1.6,0.2c1.4-2.6,2.6-4.8,3.8-7.4c0-0.4-0.1-0.3,0.3-0.4c1.8-1.7,3.3-3.3,4.8-4.9
	c0,0-0.1,0,0.3,0c7.2-3.5,13.9-6.3,22-4.1c6.7,1.8,11.8,5.6,16.6,10.2C249.9,111.1,249.9,111,249.9,111z"/>
</svg>
