<?xml version="1.0" encoding="utf-8"?>
<!-- Generator: Adobe Illustrator 26.5.3, SVG Export Plug-In . SVG Version: 6.00 Build 0)  -->
<svg version="1.1" id="Layer_1" xmlns="http://www.w3.org/2000/svg" xmlns:xlink="http://www.w3.org/1999/xlink" x="0px" y="0px"
	 viewBox="0 0 608.9 533.6" style="enable-background:new 0 0 608.9 533.6;" xml:space="preserve">
<style type="text/css">
	.st0{fill:#61DAFB;}
</style>
<path class="st0" d="M203.8,533.6c-10.5,0-21,0-31.5-0.2c-0.5-0.4-0.9-0.8-1.4-0.9c-8.6-2.3-16.4-6.2-23.1-12.1
	c-9.4-8.4-15.5-18.9-19.6-30.7c-3.9-11.3-5.7-23-6.2-34.8c-0.5-9.9-0.1-19.8,0.5-29.7c0.5-8.1,1.9-16.2,3.1-24.2
	c1.1-7.1,2.6-14.2,4.1-21.3c0.8-3.9,1.8-7.7,2.6-11.6c-4.6-1.4-9.1-2.5-13.3-4.1c-12.6-4.7-25.4-9-37.7-14.4
	c-16.3-7.1-31.8-16-45.3-27.8c-9.8-8.6-18.5-18.4-23.9-30.7c-4.3-9.9-5.7-20.2-4.6-30.7c1.1-9.9,4.9-19.1,10.6-27.4
	c5.4-7.9,11.9-14.7,19.2-20.9c9-7.6,18.8-14.1,29.3-19.5c9.3-4.8,18.9-9.2,28.5-13.2c8.4-3.4,17.1-6,25.7-9
	c3.8-1.3,7.6-2.5,11.3-3.7c-0.3-1.8-0.5-3.4-0.8-5c-2.3-11.2-4.9-22.4-6.8-33.7c-1.4-8.6-2.5-17.3-2.6-26
	c-0.2-11.2,0.1-22.4,1.1-33.5c0.8-9.2,3.1-18.3,6.5-27c3.1-8,7.2-15.3,12.8-21.7c7.8-8.8,17.3-14.8,28.8-17.7c0.3-0.1,0.5-0.7,0.8-1
	c10.5,0,21,0,31.5,0.2c0.4,0.4,0.7,0.8,1.1,0.9c9.3,1.6,18,5,26.5,8.9c15.2,7.1,29.5,15.9,42.4,26.5c10.2,8.4,20,17.1,30,25.7
	c1,0.9,1.8,2.1,2.7,3.1c3.5-3.2,6.6-6.2,9.8-8.9c9.3-7.8,18.6-15.7,28.1-23.3c9.3-7.5,19.5-13.7,30-19.2c11-5.7,22.3-10.7,34.7-12.9
	c0.2,0,0.3-0.6,0.5-1c10.5,0,21,0,31.5,0.2c0.3,0.4,0.6,0.8,0.9,0.8C456,5.9,467,14.2,475.4,26.3c5,7.3,8.3,15.4,10.8,23.8
	c3,10.1,4.6,20.5,4.8,30.9c0.3,10.5-0.3,21-1,31.4c-0.5,7.1-1.4,14.2-2.6,21.2c-1.9,11.1-4.2,22.1-6.3,33.4c0.3,0.1,0.9,0.4,1.5,0.6
	c8.1,2.7,16.1,5.3,24.2,8c15,5,29.3,11.5,43,19.2c12.9,7.2,24.9,15.5,35.2,26.3c6.5,6.9,12,14.3,15.8,22.9
	c4.5,10.2,5.8,20.8,4.3,31.9c-1.3,9.6-5,18.2-10.3,26.1c-5.3,8-12.1,14.7-19.3,21c-8.5,7.4-18,13.5-27.9,18.7
	c-8.8,4.6-17.9,9-27.1,12.7c-9.8,4-20,7.1-30.1,10.6c-3.3,1.1-6.6,2.2-9.3,3.1c2.3,12.6,4.8,24.9,6.7,37.2
	c1.4,9.2,2.6,18.4,3.1,27.7c0.4,8.2,0.1,16.4-0.5,24.6c-0.4,6.6-1.4,13.3-2.6,19.8c-2.5,13.2-7.4,25.3-16,35.8
	c-7.9,9.7-17.8,16-29.8,19.3c-0.4,0.1-0.7,0.7-1,1c-10.5,0-21,0-31.5-0.2c-0.3-0.4-0.6-0.8-0.9-0.8c-10.3-1.8-19.9-5.7-29.3-10.2
	c-11.9-5.7-23-12.7-33.7-20.5c-10.3-7.6-20.3-15.6-29.6-24.3c-3.2-3-6.5-5.9-9.5-8.7c-7.7,6.8-15.2,13.8-23.1,20.3
	c-7.7,6.3-15.7,12.2-23.7,18c-10,7.1-20.6,13.1-31.9,17.9c-7.6,3.3-15.3,6.1-23.4,7.6C204.3,532.7,204.1,533.3,203.8,533.6
	 M387.7,318.6c3.2-5.6,6.4-11.2,9.4-16.9c5.3-9.8,10.5-19.6,15.5-29.5c1-2,2.9-4,1.2-7c-2.8-4.7-4.9-9.8-7.5-14.7
	c-4.6-8.7-9.1-17.6-14.2-26.1c-9.2-15.5-18.9-30.8-28.2-46.2c-2.1-3.5-4.4-6-9-5c-0.9,0.2-1.9-0.4-2.8-0.5c-7.5-0.4-15.1-1-22.6-1
	c-16.5,0-33.1,0.2-49.6,0.5c-7,0.1-14.1,1.2-21,0.8c-5.2-0.3-8,1.5-10,5.9c-0.9,1.9-2.5,3.5-3.6,5.4c-4.9,7.8-10,15.5-14.7,23.4
	c-5,8.3-9.8,16.8-14.4,25.3c-5.4,10-10.7,20-15.9,30.2c-0.9,1.8-2.3,3.7-1,6.2c4.2,8,7.8,16.3,12.2,24.2
	c7.1,12.9,14.5,25.6,22.1,38.2c5.9,9.7,12.3,19.1,18.5,28.6c0.3,0.5,0.9,1,1.5,1.1c2.9,0.3,5.8,0.4,8.7,0.6c6.9,0.4,13.9,1,20.8,1
	c16.6,0,33.3-0.2,49.9-0.5c8.5-0.2,17-0.8,25.6-0.9c1.8,0,2.7-0.8,3.5-2C370.4,346.2,378.9,332.6,387.7,318.6 M240.8,143.5
	c14.6-20.1,30-39.6,47.2-58c-4.9-4.4-9.7-9.1-14.9-13.4c-8.2-6.8-16.6-13.5-25.1-19.8c-15-11.1-31.1-19.9-49.5-24
	c-7.1-1.6-14.3-2-21.4,0.1c-10,2.9-16.4,9.7-20.8,18.7c-5.2,10.6-7.2,22.2-7.7,33.8c-0.4,9.4,0.2,18.9,0.5,28.3
	c0.1,3.5,0.5,7,1.1,10.4c1.1,7,2.3,14,3.7,20.9c1.3,6.7,2.9,13.4,4.3,19.9c4.8-1,9.3-2,13.8-2.8c7.1-1.4,14.2-2.8,21.4-4
	c5.7-0.9,11.4-1.5,17-2.2c7-0.9,13.9-1.8,20.9-2.6C235.1,148.5,239,148.4,240.8,143.5 M251.7,406.2c-4.3-5.8-8.5-11.5-12.8-17.3
	c-0.6-0.8-1.2-1.9-2-2c-3.3-0.6-6.7-0.8-10.1-1.2c-6.6-0.7-13.2-1.3-19.7-2.2c-7.3-1-14.5-2.4-21.7-3.7c-9.1-1.6-18.1-3.3-27.4-5.1
	c-1.2,5.7-2.4,11.6-3.7,17.5c-3.1,13.3-5,26.8-5.7,40.4c-0.5,11.2-0.7,22.5,1.3,33.7c1.6,9,3.8,17.6,8.5,25.5
	c4,6.7,9.4,11.7,16.9,14.3c8.6,3,17.3,2.2,25.9,0.1c14.3-3.6,27.4-10.2,39.5-18.4c8.7-5.8,17-12.2,25.1-18.7
	c7.6-6.1,14.8-12.9,22.2-19.3c-4.5-4.9-8.7-9.3-12.7-14c-4.9-5.7-9.6-11.6-14.4-17.5C258,414.3,255,410.4,251.7,406.2 M353.4,416.3
	c-3.5,4.3-6.8,8.8-10.4,13c-5.8,6.8-11.7,13.4-17.9,20.5c7.3,6.4,14.5,13.3,22.3,19.4c8.8,7,17.9,13.5,27.2,19.8
	c12.2,8.3,25.5,14.5,40,17.8c7.2,1.6,14.3,1.9,21.4-0.1c9.9-2.8,16.3-9.6,20.6-18.5c5.5-11.5,7.6-23.8,7.9-36.4
	c0.3-11.1,0.3-22.1-1.5-33.1c-0.9-5.7-1.2-11.4-2.3-17c-1.7-9-3.9-18-5.8-27c-3.4,0.7-6.5,1.5-9.7,2.1c-9.2,1.7-18.4,3.3-27.6,4.8
	c-6.7,1.1-13.5,2.3-20.2,3.1c-7,0.9-14,1.4-21,2.2c-0.5,0-1,0.5-1.3,0.9c-2.3,3.1-4.5,6.3-6.9,9.4
	C363.4,403.4,358.5,409.7,353.4,416.3 M454.5,43.2C448,32.3,438.3,27.1,425.8,27c-6.9,0-13.5,1.5-20.1,3.6c-12,4-23.2,9.6-33.6,16.8
	c-9.6,6.7-19,13.9-28.2,21.2c-6.6,5.3-12.7,11.2-18.9,16.7c4.7,5.4,9.2,10.5,13.6,15.6c5.4,6.4,10.9,12.7,16,19.2
	c6.9,8.9,13.4,18,20.2,27c0.4,0.5,0.9,1,1.5,1.1c3.3,0.4,6.6,0.8,9.9,1.1c6.7,0.7,13.5,1.3,20.2,2.2c7.4,1,14.9,2.3,22.3,3.7
	c8.7,1.6,17.4,3.4,26.6,5.2c2.2-11.9,4.6-23.9,6.5-36c1.2-7.5,2.4-15,2.6-22.5c0.3-11.1,0.6-22.3-1.4-33.4
	C461.5,59.7,459.2,51.3,454.5,43.2 M525.6,212.2c-16.7-8.3-34.3-14.5-52.2-19.5c-0.2,0.7-0.4,1.5-0.7,2.2
	c-3.6,10.3-6.9,20.7-10.8,30.8c-5.3,13.5-11,26.8-16.7,40.2c-0.6,1.3-0.6,2.2,0,3.5c2.5,5.2,4.9,10.4,7.1,15.7
	c3.5,8.4,6.9,16.8,10,25.3c3.9,10.6,7.5,21.3,11.3,32c5.8-1.8,11.8-3.6,17.7-5.6c15.8-5.3,31.2-11.6,45.8-19.9
	c12.4-7,24-15.1,33-26.5c6-7.6,10-15.8,8.9-25.9c-0.5-4.9-2.1-9.3-4.5-13.6c-3.4-5.9-7.7-11.1-12.9-15.5c-4.1-3.4-8.1-7.1-12.6-10
	C541.5,220.8,533.7,216.6,525.6,212.2 M92.8,325.6c15.2,6.9,30.9,12.3,47,16.9c0-0.5,0-1.1,0.1-1.6c4-11.3,7.6-22.8,12-33.9
	c5.1-12.9,10.8-25.6,16.2-38.4c0.2-0.5,0.3-1.3,0-1.8c-4.6-10.9-9.5-21.7-13.8-32.8c-5.3-13.6-10.1-27.4-15.2-41.4
	c-7,2.3-14.4,4.8-21.8,7.3c-14.6,4.8-28.6,11-41.9,18.5c-12.2,6.9-23.6,14.8-32.4,26c-6.1,7.7-10.5,16.1-8.9,26.3
	c0.7,4.4,2.1,8.9,4.1,12.9c3.1,6.2,7.7,11.5,13.1,15.9c4.2,3.4,8.1,7.2,12.7,10C73.4,315.1,83,320.2,92.8,325.6 M431.4,182.9
	c-3.6-0.7-7.3-1.5-10.9-2.1c-5.3-0.9-10.6-1.8-15.9-2.6c-3.2-0.5-6.3-0.8-9.1-1.1c11.2,19.4,22.5,38.9,34.1,58.9
	c6.2-16.7,12.2-33.1,18.4-49.9C442.3,185,437.1,183.9,431.4,182.9 M428.1,300.5c-10,19.7-21.3,38.6-33.1,57.5
	c17.8-2.2,35.2-5.2,53-9.2c-6.2-16.9-12.3-33.3-18.6-50.5C428.7,299.5,428.6,299.9,428.1,300.5 M276.2,394
	c9.4,12.6,19.6,24.5,30.6,36.6c11.5-13.8,22.7-27.3,34-40.9c-23.1,0-45.6,0-68.3,0C273.8,391.1,274.9,392.4,276.2,394 M295.1,117.5
	c-2.3,2.8-4.6,5.7-6.9,8.5c-5.2,6.4-10.4,12.9-15.7,19.4c22.8,0,45.3,0,67.9,0c-10.7-14-21.8-27.6-33.9-40.6
	C302.6,109.1,299,113.2,295.1,117.5 M183,301.3c-6,15.7-12,31.5-18.2,47.9c18.3,3.2,35.7,6.2,53,9.2c-11.4-19.8-22.7-39.3-33.9-58.7
	C183.7,299.9,183.4,300.4,183,301.3 M176.7,217.8c2.4,6,4.8,12,7.1,17.8c11.4-19.8,22.6-39.2,34.1-59c-17.4,3-34.9,6.1-52.3,9.1
	c0.5,1.5,0.7,2.4,1,3.3C169.8,198.5,173.1,208,176.7,217.8z"/>
<path class="st0" d="M354.8,244.3c2.8,6.1,4.4,12.2,5,18.8c1.3,12.6-1.9,24.2-8.8,34.4c-8.2,12.3-20,19.9-34.7,22.7
	c-12.9,2.4-25,0.2-36.3-6.1c-12.1-6.8-20.1-17.1-24.5-30.1c-1.9-5.6-2.8-11.5-2.6-17.4c0.4-11.9,4.1-22.6,11.4-32.1
	c7.4-9.6,17.1-15.7,28.6-18.8c8.2-2.2,16.6-2.4,25-0.5c11.6,2.6,21.3,8.2,29,17.1C350,235.8,352.1,240.1,354.8,244.3z"/>
</svg>
