<?xml version="1.0" encoding="utf-8"?>
<!-- Generator: Adobe Illustrator 26.5.3, SVG Export Plug-In . SVG Version: 6.00 Build 0)  -->
<svg version="1.1" id="Layer_1" xmlns="http://www.w3.org/2000/svg" xmlns:xlink="http://www.w3.org/1999/xlink" x="0px" y="0px"
	 viewBox="0 0 612 612" style="enable-background:new 0 0 612 612;" xml:space="preserve">
<style type="text/css">
	.st0{fill:#3178C6;}
	.st1{fill:#FFFFFF;}
</style>
<path class="st0" d="M0.3,594.4c0-192.2,0-384.3,0.1-576.6c1-2.2,1.7-4.5,2.9-6.5c3.2-5.5,7.9-9.1,14-10.7c0.2-0.1,0.4-0.4,0.6-0.6
	c192.2,0,384.3,0,576.6,0.1c1.8,0.8,3.6,1.2,5.2,2.1c6.1,3.3,10.4,8.1,12.1,15c0,0.2,0.4,0.3,0.5,0.4c0,192.2,0,384.3-0.1,576.6
	c-1,2.2-1.7,4.5-2.9,6.5c-3.2,5.4-7.9,9.1-14,10.7c-0.2,0.1-0.4,0.4-0.6,0.6c-192.2,0-384.3,0-576.6-0.1c-2.2-1-4.5-1.7-6.5-2.9
	c-5.5-3.2-9.1-7.9-10.7-14C0.8,594.7,0.5,594.6,0.3,594.4 M413.8,556.7c5.2,0.5,10.3,1,15.5,1.3c17.8,1.1,35.5,0.2,53.1-3.1
	c11.9-2.3,23.3-5.9,33.9-11.9c16.5-9.4,28.1-22.9,33.5-41.2c3.3-11.3,3.8-22.8,2.8-34.5c-0.9-10.6-4-20.6-9.6-29.7
	c-6-9.9-14.2-17.6-23.6-24.2c-11-7.7-23.1-13.5-35.3-18.9c-10.2-4.5-20.4-9-30.4-13.9c-6.8-3.4-13.2-7.7-18.3-13.5
	c-5.7-6.6-7.6-14.1-4.9-22.4c2.1-6.6,7.1-10.9,13.1-14.1c8.6-4.6,18-6.2,27.6-6.6c9.6-0.4,19.1,0.5,28.5,2.4
	c14.3,2.9,27.8,7.8,40.1,15.9c0.3,0.2,0.6,0.3,1,0.6c0-0.4,0.1-0.6,0.1-0.9c0-18.3,0-36.7,0-55c0-0.9-0.3-1.3-1.1-1.5
	c-5.8-1.7-11.6-3.7-17.4-5.1c-11.9-2.9-24.1-4.1-36.4-4.7c-17.6-0.8-35.1-0.1-52.4,3.7c-13.3,2.9-25.8,7.6-37.2,15.2
	c-13.7,9.2-23.6,21.3-28.7,37c-3.9,12-4.5,24.3-2.8,36.8c1.6,12.3,6.1,23.4,13.8,33.2c7.7,9.9,17.5,17.5,28.2,23.9
	c9.5,5.7,19.8,9.8,29.9,14.1c9.9,4.1,19.7,8.3,28.9,13.7c6.5,3.8,12.5,8.2,17.1,14.3c8,10.7,6,25-4.6,33c-4.5,3.4-9.7,5.5-15.1,6.9
	c-11.8,3-23.8,3.1-35.7,1.7c-22.8-2.8-43.1-11.5-60.9-26c-0.3-0.3-0.7-0.5-1.1-0.8c0,0.4-0.1,0.6-0.1,0.8c0,19.7,0,39.3,0,59
	c0,0.9,0.4,1.3,1.1,1.6c6.5,3.2,13.3,5.7,20.2,7.6C395.4,553.8,404.4,555.5,413.8,556.7 M262.4,449.6c0-41.3,0-82.5,0-124
	c26.1,0,52.1,0,78,0c0-16.8,0-33.4,0-50c-72.6,0-145,0-217.6,0c0,16.7,0,33.3,0,50.1c25.9,0,51.7,0,77.7,0c0,74.6,0,148.9,0,223.4
	c20.7,0,41.2,0,61.9,0C262.4,515.9,262.4,482.9,262.4,449.6z"/>
<path class="st1" d="M413.7,556.6c-9.3-1.2-18.3-2.8-27.2-5.3c-7-2-13.7-4.4-20.2-7.6c-0.7-0.4-1.1-0.7-1.1-1.6c0-19.7,0-39.3,0-59
	c0-0.2,0-0.4,0.1-0.8c0.4,0.3,0.8,0.5,1.1,0.8c17.8,14.5,38.1,23.2,60.9,26c12,1.5,23.9,1.4,35.7-1.7c5.4-1.4,10.6-3.5,15.1-6.9
	c10.7-8,12.7-22.3,4.6-33c-4.6-6.1-10.6-10.4-17.1-14.3c-9.2-5.5-19.1-9.6-28.9-13.7c-10.2-4.3-20.4-8.4-29.9-14.1
	c-10.7-6.4-20.5-13.9-28.2-23.9c-7.6-9.8-12.1-20.9-13.8-33.2c-1.7-12.5-1.1-24.8,2.8-36.8c5.1-15.8,15-27.9,28.7-37
	c11.4-7.6,23.9-12.3,37.2-15.2c17.3-3.8,34.8-4.5,52.4-3.7c12.3,0.5,24.4,1.7,36.4,4.7c5.9,1.4,11.6,3.4,17.4,5.1
	c0.8,0.2,1.1,0.6,1.1,1.5c0,18.3,0,36.7,0,55c0,0.2,0,0.5-0.1,0.9c-0.4-0.2-0.7-0.4-1-0.6c-12.3-8.1-25.8-13-40.1-15.9
	c-9.4-1.9-18.9-2.8-28.5-2.4c-9.6,0.4-19,2-27.6,6.6c-6,3.2-10.9,7.5-13.1,14.1c-2.7,8.3-0.8,15.8,4.9,22.4
	c5.1,5.8,11.4,10.1,18.3,13.5c10,4.9,20.2,9.4,30.4,13.9c12.3,5.4,24.3,11.2,35.3,18.9c9.4,6.6,17.6,14.3,23.6,24.2
	c5.6,9.1,8.6,19.1,9.6,29.7c1,11.6,0.6,23.2-2.8,34.5c-5.4,18.4-17,31.8-33.5,41.2c-10.6,6-22,9.7-33.9,11.9
	c-17.6,3.3-35.3,4.2-53.1,3.1C424.1,557.7,419,557.1,413.7,556.6z"/>
<path class="st1" d="M262.4,449.7c0,33.2,0,66.2,0,99.2c-20.7,0-41.2,0-61.9,0c0-74.4,0-148.8,0-223.4c-26,0-51.8,0-77.7,0
	c0-16.8,0-33.4,0-50.1c72.5,0,145,0,217.6,0c0,16.6,0,33.2,0,50c-25.9,0-51.9,0-78,0C262.4,367,262.4,408.3,262.4,449.7z"/>
</svg>
