<?xml version="1.0" encoding="utf-8"?>
<!-- Generator: Adobe Illustrator 26.5.3, SVG Export Plug-In . SVG Version: 6.00 Build 0)  -->
<svg version="1.1" id="Layer_1" xmlns="http://www.w3.org/2000/svg" xmlns:xlink="http://www.w3.org/1999/xlink" x="0px" y="0px"
	 viewBox="0 0 612 586.3" style="enable-background:new 0 0 612 586.3;" xml:space="preserve">
<style type="text/css">
	.st0{fill:#FFD830;}
	.st1{fill:#B143FE;}
	.st2{fill:#A850FD;}
	.st3{fill:#9C5EFE;}
	.st4{fill:#62A7FF;}
	.st5{fill:#5BB0FF;}
	.st6{fill:#6C9AFF;}
	.st7{fill:#A553FE;}
	.st8{fill:#9764FE;}
	.st9{fill:#B83AFE;}
	.st10{fill:#916CFE;}
	.st11{fill:#A058FE;}
	.st12{fill:#BD34FE;}
	.st13{fill:#7293FF;}
	.st14{fill:#8B73FE;}
	.st15{fill:#867AFE;}
	.st16{fill:#53BBFF;}
	.st17{fill:#68A0FF;}
	.st18{fill:#9567FE;}
	.st19{fill:#8878FE;}
	.st20{fill:#906DFE;}
	.st21{fill:#778CFF;}
	.st22{fill:#8081FE;}
	.st23{fill:#AD49FE;}
	.st24{fill:#7B87FF;}
	.st25{fill:#837EFD;}
	.st26{fill:#FFDF42;}
	.st27{fill:#4BC5FF;}
	.st28{fill:#FFE45E;}
	.st29{fill:#FFE251;}
	.st30{fill:#FFCE26;}
	.st31{fill:#FFA902;}
	.st32{fill:#FFB10A;}
	.st33{fill:#FFC51D;}
	.st34{fill:#FFBA13;}
</style>
<path class="st0" d="M442.8,24.2c-4.1,14.3-8.2,28.7-12.3,43c-2.5,8.7-5.1,17.3-7.8,26.3c-1.5,4.6-2.9,9-4.5,13.2
	c-2.2,0.2-4.2,0.3-6.1,0.5c-11.5,1.6-23,3.3-34.5,5c-11.2,1.6-22.4,3.4-33.6,5c-11.6,1.7-23.2,3.4-34.8,5
	c-10.1,1.5-20.3,2.9-30.4,4.4c-11.4,1.7-22.8,3.4-34.2,5c-7,1-13.9,1.8-21,2.5c0-4.8,0.1-9.3,0.2-14.1c0.6-6.9,1.1-13.6,1.6-20.2
	c0-0.2-0.3-0.5-0.4-0.7c0.2-1,0.6-2,0.7-3c0.3-5.4,0.3-10.9,0.6-16.3c0.5-7.9,1.2-15.8,2-24c7.7-1.4,15.1-2.6,22.6-3.7
	c11.6-1.7,23.2-3.5,34.8-5.2c11.2-1.6,22.4-3.2,33.7-4.9c11.6-1.7,23.2-3.4,34.8-5c10.2-1.5,20.3-2.9,30.5-4.4
	c11.4-1.7,22.8-3.4,34.2-5C426.8,26.3,434.8,25.3,442.8,24.2z"/>
<path class="st1" d="M457.6,337.5c-4.3,7.7-8.6,15.5-12.9,23.2c-7,12.4-14,24.7-20.9,37.1c-4.3,7.7-8.5,15.5-13.1,23.3
	c-1.2,0.3-2.2,0.4-2.9,1c-18.4,13.5-36.7,27-55.1,40.5c-25.1,18.5-50.2,37.1-75.4,55.5c-3.6,2.6-7.4,5-11.2,7.4
	c-1.9-3-3.9-6-5.7-9.1c-2.8-4.8-5.5-9.7-8-14.8c1.6-0.7,3.1-0.9,4.2-1.7c12.5-9.1,24.8-18.4,37.3-27.5c3.2-2.3,6.7-4.2,10.1-6.1
	c-0.9,4.4-1.8,8.6-2.7,12.7c-1,4.4,0.6,8.1,4.2,9.7c3.7,1.6,7.2,0.4,9.7-3.5c1.4-2.1,2.7-4.3,3.9-6.6c5.8-11.4,11.5-22.9,17.2-34.3
	c5.1-10.2,10.3-20.4,15.6-30.7c1.8-0.9,3.5-1.6,5-2.7c9.4-6.9,18.7-13.8,28.1-20.7c20.5-15.1,41.1-30.3,61.7-45.3
	C450.2,342.2,454,339.9,457.6,337.5z"/>
<path class="st2" d="M457.7,337.3c-3.7,2.6-7.5,4.9-11,7.4c-20.6,15.1-41.1,30.2-61.7,45.3c-9.4,6.9-18.7,13.9-28.1,20.7
	c-1.5,1.1-3.2,1.8-5,2.5c3.1-6.7,6.3-13.3,9.7-20c5.8-11.5,11.3-22.8,17-34c4.2-8.3,8.5-16.6,12.9-24.8c1.6-0.5,3.1-0.8,4.2-1.6
	c8-5.8,16-11.6,23.9-17.5c26.9-19.8,53.8-39.7,80.7-59.5c1.2-0.9,2.5-1.8,3.8-2.6c-2.4,4.6-4.8,9.3-7.3,13.9
	c-4.2,7.5-8.5,14.9-12.7,22.4c-6.3,11.1-12.5,22.3-18.7,33.4C462.9,327.7,460.3,332.4,457.7,337.3z"/>
<path class="st3" d="M219.2,443.6c-6.1-10.7-12.2-21.3-18.2-32.3c1-1,1.9-1.8,2.8-2.5c7.6-5.6,15.3-11.2,22.9-16.8
	c14.6-10.7,29.1-21.4,43.6-32.2c2.9-2.1,5.4-4.6,8.4-6.9c3.5,1.3,6.3-0.6,9.2-1.5c9.7-2.8,19.3-5.8,28.9-8.7
	c6.4-1.9,12.2,2.2,11.1,8c-1.1,5.8-2.5,11.6-3.9,17.4c-1.3,0.5-2.5,0.8-3.4,1.4c-8.9,6.5-17.9,13-26.8,19.6
	c-23.1,17-46.1,34-69.2,51C223,441.5,221,442.4,219.2,443.6z"/>
<path class="st4" d="M180.8,91.4c5.9,1,11.8,2.1,17.6,3.1c7.8,1.3,15.6,2.6,23.4,4.3c-16,12.2-32,23.9-48,35.7
	c-28.1,20.8-56.2,41.6-84.4,62.3c-2.5,1.9-5.5,3.1-8.3,4.6c-4.6-8.1-9.3-16.2-13.9-24.6c0.6-0.7,1.1-1.2,1.7-1.6
	c20.2-14.9,40.5-29.7,60.8-44.6c16.5-12.1,32.9-24.3,49.3-36.5C179.9,93.6,180.3,92.4,180.8,91.4z"/>
<path class="st5" d="M180.6,91.4c-0.3,1-0.7,2.2-1.5,2.8c-16.4,12.2-32.8,24.3-49.3,36.5c-20.2,14.9-40.5,29.7-60.8,44.6
	c-0.6,0.4-1.1,0.9-1.7,1.4C61,166.1,55,155.5,49,144.5c0.6-0.5,1-0.7,1.4-1c25.4-18.7,50.9-37.4,76.2-56.2c1.7-1.3,3.1-3.1,4.6-4.7
	C147.7,85.5,164,88.4,180.6,91.4z"/>
<path class="st6" d="M223.7,120.2c-0.1,4.6-0.1,9.1-0.2,14.1c-0.3,3.7-0.6,7-0.8,10.3c-0.3,4.4-0.5,8.8-0.9,13.3
	c-1.5,0.8-2.8,1.4-4,2.2c-13,9.6-26,19.2-39,28.8c-23.4,17.2-46.9,34.5-70.3,51.6c-1.1,0.8-2.8,0.7-4.2,1
	c-4.1-7.1-8.2-14.1-12.3-21.2c-0.6-1-1.2-2-1.5-3.2c1.3-0.8,2.4-1.3,3.3-1.9c16-11.8,32-23.6,47.9-35.4
	c23.6-17.4,47.3-34.8,70.9-52.2C216.2,125.1,220,122.7,223.7,120.2z"/>
<path class="st7" d="M219.2,443.8c1.8-1.3,3.7-2.3,5.4-3.6c23.1-17,46.1-34,69.2-51c8.9-6.6,17.8-13.1,26.8-19.6
	c0.9-0.7,2.1-1,3.4-1.2c-1.8,10.3-3.8,20.3-5.9,30.6c-1.9,8.7-3.7,17.2-5.7,25.7c-1.2,0.3-2.4,0.5-3.2,1.1
	c-5.2,3.7-10.4,7.6-15.6,11.4C276,450.1,258.5,463,241,475.9c-0.8,0.6-1.3,1.6-1.9,2.4c-5.1-8.8-10.2-17.7-15.3-26.5
	C222.3,449.2,220.8,446.6,219.2,443.8z"/>
<path class="st8" d="M590.3,99.6c-2.4,4.6-4.8,9.3-7.3,13.9c-3.1,5.6-6.4,11.1-9.5,16.7c-4.7,8.4-9.4,16.8-14.4,25.3
	c-1.7,0.8-3.1,1.4-4.2,2.2c-15.2,11.2-30.4,22.4-45.6,33.6c-21.4,15.8-42.9,31.6-64.3,47.3c-2.4,1.8-5.1,3.1-7.7,4.4
	c1.2-2.6,2.4-4.9,3.6-7.3c7.7-15.4,15.4-30.7,23.3-46.1c1.6-0.6,3.3-0.9,4.5-1.8c10.4-7.5,20.7-15.1,31-22.7
	c28.1-20.7,56.1-41.5,84.2-62.2C585.7,101.5,588.1,100.7,590.3,99.6z"/>
<path class="st9" d="M266.2,525.7c3.7-2.7,7.5-5,11.1-7.7c25.1-18.5,50.2-37,75.4-55.5c18.3-13.5,36.7-27,55.1-40.5
	c0.7-0.5,1.7-0.7,2.7-0.9c-4.9,9.2-10,18.3-15,27.3c-4,7.2-8,14.3-11.9,21.5c-1.3,2.3-2.5,4.7-4.1,7c-1.3,0.4-2.3,0.6-3.1,1.2
	c-8.8,6.5-17.6,13-26.5,19.6c-23.4,17.3-46.8,34.6-70.1,51.9C275.2,541.7,270.7,533.8,266.2,525.7z"/>
<path class="st10" d="M590.5,99.5c-2.4,1.2-4.8,2-6.8,3.5c-28.1,20.7-56.2,41.5-84.2,62.2c-10.3,7.6-20.6,15.2-31,22.7
	c-1.2,0.9-2.8,1.2-4.5,1.6c3.3-7.1,6.7-14,10.4-21c2.9-5.6,5.9-11.1,8.4-16.7c0.9-2,0.8-4.5,1.4-6.8c1.4-0.7,2.7-1.2,3.8-2
	c13.6-9.9,27.1-19.9,40.6-29.9c20.1-14.8,40.3-29.7,60.4-44.6c0.8-0.6,1.2-1.6,1.8-2.4c7.7,4.1,10.4,12.1,7.1,20.1
	C596,90.8,593.1,95,590.5,99.5z"/>
<path class="st11" d="M504.5,253.2c-1.4,1-2.7,1.8-3.9,2.7c-26.9,19.8-53.8,39.7-80.7,59.5c-7.9,5.9-15.9,11.7-23.9,17.5
	c-1.1,0.8-2.6,1.1-4.2,1.3c1.7-4.1,3.6-7.9,5.6-11.9c0.9-1.5,1.6-2.9,2.3-4.3c5.4-10.6,10.8-21.3,16.3-31.8c1.1-0.3,2.3-0.5,3.1-1.1
	c8-5.8,15.9-11.7,23.9-17.6c19.9-14.6,39.7-29.2,59.6-43.9c8.9-6.6,17.8-13.1,26.8-19.6c0.8-0.6,2.2-0.5,3.3-0.8
	c-7.3,13.1-14.5,26.2-21.8,39.2C508.7,246.1,506.7,249.6,504.5,253.2z"/>
<path class="st12" d="M279.8,549.8c23.3-17.5,46.7-34.8,70.1-52c8.8-6.5,17.6-13.1,26.5-19.6c0.8-0.6,1.9-0.8,2.9-1.1
	c-8.2,15.2-16.4,30.2-24.8,45.3c-9.9,17.8-20,35.6-30,53.5c-2.4,4.2-5.1,8.1-10.1,9.7c-7,2.3-14.7-0.6-18.6-7.4
	C290.4,568.8,285.2,559.4,279.8,549.8z"/>
<path class="st13" d="M104.2,241.8c1.4-0.5,3.1-0.5,4.2-1.3c23.5-17.1,46.9-34.4,70.3-51.6c13-9.6,26-19.2,39-28.8
	c1.2-0.9,2.5-1.5,4-1.9c-0.5,11.3-1.1,22.3-2.1,33.3c-1.1,0.4-2,0.7-2.8,1.2c-4,2.9-7.9,5.8-11.8,8.7
	c-19.9,14.7-39.8,29.3-59.7,43.9c-9.1,6.7-18.3,13.4-27.5,20c-1.8-2.9-3.6-5.8-5.3-8.8C109.8,251.8,107,246.9,104.2,241.8z"/>
<path class="st14" d="M175.9,367.5c-3.9-6.8-7.8-13.6-11.6-20.7c0.7-0.7,1.4-1.1,2-1.5c15.1-11.1,30.1-22.2,45.1-33.3
	c13.7-10.1,27.4-20.2,41.1-30.3c12-8.8,23.9-17.7,36.1-26.4c2.2,2.3,2.7,4.8,2,7.7c-0.4,1.5-0.5,3-0.9,4.8
	c-1.4,6.4-2.8,12.5-4.3,18.7c-0.8,0.3-1.5,0.5-2.1,0.9c-15.2,11.2-30.4,22.4-45.5,33.6c-17.5,12.9-35,25.7-52.4,38.6
	C182.1,361.9,179.1,364.8,175.9,367.5z"/>
<path class="st3" d="M532.7,203.2c-1.3,0.3-2.6,0.3-3.5,0.9c-9,6.5-17.9,13-26.8,19.6c-19.9,14.6-39.7,29.2-59.6,43.9
	c-8,5.9-15.9,11.8-23.9,17.6c-0.9,0.6-2,0.8-3.1,0.9c0.4-1.4,0.9-2.5,1.4-3.5c5.8-11.7,11.6-23.4,17.5-35.2c0.9-1.4,1.6-2.7,2.3-4
	c2.6-1.5,5.3-2.9,7.7-4.7c21.5-15.7,42.9-31.5,64.3-47.3c15.2-11.2,30.4-22.4,45.6-33.6c1.2-0.9,2.6-1.4,4-2.1
	c-2.6,5.2-5.4,10.5-8.4,15.8c-5.7,10.3-11.5,20.6-17.3,30.9C533,202.5,533,202.8,532.7,203.2z"/>
<path class="st15" d="M288.5,255.1c-12,8.8-23.9,17.7-35.9,26.5c-13.7,10.1-27.4,20.2-41.1,30.3c-15.1,11.1-30.1,22.2-45.1,33.3
	c-0.6,0.5-1.3,0.8-2.2,1.4c-4.2-6.9-8.2-13.9-12.1-21.3c1.4-1.7,2.6-3.1,4.1-4.2c23.8-17.6,47.7-35.1,71.6-52.7
	c0.9-0.7,1.3-2,2.2-3.1c3.3-0.8,6.5-1.5,9.6-2.3c13.7-3.2,27.4-6.4,41.1-9.5C283.5,252.8,286.3,252.6,288.5,255.1z"/>
<path class="st16" d="M131.1,82.5c-1.3,1.6-2.6,3.4-4.4,4.7c-25.4,18.8-50.8,37.5-76.2,56.2c-0.4,0.3-0.9,0.5-1.5,0.8
	c-6.4-10.8-12.7-21.6-18.9-32.8c15.2-11.6,30.3-22.7,45.3-34c1.6-1.2,2.7-2.9,4.1-4.3c5,0.9,10.1,1.9,15.1,2.8
	c8.3,1.5,16.7,3,25,4.5C123.4,81.1,127.1,81.8,131.1,82.5z"/>
<path class="st17" d="M223.8,119.9c-3.8,2.7-7.6,5.1-11.2,7.8c-23.7,17.4-47.3,34.8-70.9,52.2c-16,11.8-32,23.6-47.9,35.4
	c-0.9,0.7-2,1.1-3.3,1.7c-3.2-5-6.1-10-9.1-15.2c2.7-1.7,5.7-2.9,8.2-4.8c28.2-20.7,56.2-41.5,84.4-62.3c16-11.8,32-23.6,48.1-35.5
	c0.9-0.2,1.7-0.1,2.7-0.1c0.4,0.2,0.7,0.5,0.7,0.7C224.9,106.4,224.3,113,223.8,119.9z"/>
<path class="st18" d="M278.6,352.9c-2.7,2.3-5.3,4.8-8.2,6.9c-14.5,10.8-29.1,21.5-43.6,32.2c-7.6,5.6-15.3,11.2-22.9,16.8
	c-0.9,0.7-1.8,1.5-2.9,2.3c-4.5-7.5-8.9-15.1-13.2-22.7c-0.5-0.9-1.1-1.8-1.4-2.9c2.9-1.9,5.7-3.4,8.3-5.3
	c25.2-18.5,50.3-37.1,75.6-55.6c2.8-2,5.9-3.6,8.9-5.1c-1.3,6.6-2.5,12.9-3.9,19.4c-0.3,1.3-0.4,2.3-0.7,3.4
	C273,347,274.1,350.6,278.6,352.9z"/>
<path class="st14" d="M590.6,66c-0.4,0.9-0.8,2-1.6,2.5c-20.1,14.9-40.2,29.7-60.4,44.6c-13.5,10-27.1,19.9-40.6,29.9
	c-1.1,0.8-2.4,1.3-3.9,1.8c-2.5-4.2-4.9-5.5-9.4-4.7c-8.2,1.5-16.3,3.1-24.5,4.4c0.6-1.1,1.1-2.3,2-2.9c5.2-4,10.5-7.9,15.8-11.7
	c24-17.7,48.1-35.3,72.1-53c2.2-1.6,4-3.6,6-5.4c11.5-2.2,22.9-4.6,34.4-6.4C583.6,64.4,587,65.5,590.6,66z"/>
<path class="st19" d="M545.8,71.3c-1.7,1.9-3.6,3.9-5.7,5.5c-24,17.7-48.1,35.4-72.1,53c-5.3,3.9-10.6,7.8-15.8,11.7
	c-0.9,0.7-1.3,1.8-2.2,3c-10.9,2.4-21.6,4.5-32.4,6.5c-4.7,0.9-8-1.3-9-6.2c1.5-0.8,2.8-1.4,4-2.3c10.2-7.5,20.3-14.9,30.4-22.4
	c16.3-12,32.5-24,48.8-36.1c0.9-0.7,1.3-2.2,1.9-3.3c5.9-1,11.9-2,17.8-3.1c8.3-1.5,16.5-3.1,24.8-4.7
	C539.4,72.5,542.5,71.9,545.8,71.3z"/>
<path class="st20" d="M279,319.3c-3,1.8-6.1,3.3-8.9,5.3c-25.2,18.5-50.4,37.1-75.6,55.6c-2.6,1.9-5.4,3.4-8.3,5.1
	c-3.6-5.8-6.9-11.6-10.3-17.6c3.1-2.9,6.1-5.8,9.5-8.2c17.4-12.9,35-25.7,52.4-38.6c15.2-11.2,30.4-22.4,45.5-33.6
	c0.5-0.4,1.2-0.6,2.1-0.7c0.1,0.6-0.2,0.9-0.2,1.3C283.2,298.3,281.1,308.8,279,319.3z"/>
<path class="st21" d="M117.9,265.6c9.2-6.9,18.4-13.5,27.5-20.3c19.9-14.6,39.8-29.3,59.7-43.9c3.9-2.9,7.9-5.8,11.8-8.7
	c0.8-0.5,1.7-0.8,2.8-0.9c0.1,4.4-0.1,8.5-0.4,12.9c-0.4,5.4-0.7,10.5-1.3,15.7c-2.1,1.2-4.1,2.2-5.9,3.5
	c-23.5,17.2-46.9,34.5-70.4,51.7c-4.3,3.2-8.8,6-13.3,9C125,278.3,121.4,272,117.9,265.6z"/>
<path class="st22" d="M229.7,265.3c-0.7,1-1.1,2.4-2,3c-23.8,17.6-47.7,35.1-71.6,52.7c-1.5,1.1-2.7,2.5-4.1,4
	c-4.4-7.3-8.7-14.9-12.9-22.7c24.9-18.6,49.7-36.8,74.5-55.1c0.9-0.7,2-1.1,3.1-1.4c-0.2,4.5-0.5,8.7-0.6,12.9
	c-0.1,5.2,4.5,8.7,9.6,7.4C227.1,265.8,228.4,265.6,229.7,265.3z"/>
<path class="st23" d="M239.2,478.6c0.5-1,1-2,1.8-2.6c17.5-13,35-25.9,52.6-38.8c5.2-3.8,10.4-7.7,15.6-11.4c0.8-0.6,2-0.7,3.2-0.8
	c-0.5,3.8-1.2,7.3-2,10.9c-2.1,10-4.3,20.1-6.4,30.1c-3.4,2.1-6.9,4-10,6.3c-12.5,9.1-24.8,18.4-37.3,27.5c-1.1,0.8-2.7,1-4.2,1.5
	c-3.4-5.4-6.6-10.8-9.7-16.3C241.5,482.9,240.4,480.8,239.2,478.6z"/>
<path class="st24" d="M216.7,245.6c-1,0.5-2.1,1-3.1,1.6c-24.8,18.2-49.6,36.5-74.5,54.8c-2.3-3.5-4.5-7-6.6-10.6
	c-1.3-2.2-2.7-4.4-4-6.8c4.4-3.2,9-6.1,13.3-9.2c23.5-17.2,46.9-34.5,70.4-51.7c1.8-1.3,3.8-2.3,5.9-3.2
	C217.8,229.1,217.3,237.4,216.7,245.6z"/>
<path class="st25" d="M493.4,80.8c-0.4,1.1-0.7,2.6-1.7,3.3c-16.2,12.1-32.5,24.1-48.8,36.1c-10.1,7.5-20.3,15-30.4,22.4
	c-1.2,0.9-2.5,1.5-4,2c0-1.5,0.1-2.9,0.4-4.2c1.8-6.7,3.6-13.4,5.5-20.1c1.3-4.6,2.8-9.1,4.1-13.6c1.3-4.3,2.7-8.6,4.2-13
	c7.2-1.3,14.1-2.4,21.1-3.7c7.3-1.3,14.7-2.6,22-4c6.7-1.2,13.3-2.5,20-3.8C488.3,81.8,490.7,81.2,493.4,80.8z"/>
<path class="st26" d="M442.9,23.9c-8.1,1.3-16.1,2.4-24.1,3.5c-11.4,1.6-22.8,3.3-34.2,5c-10.2,1.5-20.3,2.9-30.5,4.4
	c-11.6,1.7-23.2,3.4-34.8,5c-11.2,1.6-22.4,3.2-33.7,4.9c-11.6,1.7-23.2,3.4-34.8,5.2c-7.4,1.1-14.9,2.3-22.5,3.5
	c-0.1-2.5,0.1-5.1,0.5-8c9.4-1.6,18.4-3,27.5-4.3c11.5-1.7,23-3.3,34.5-5c11.4-1.7,22.8-3.4,34.2-5c11.4-1.7,22.8-3.3,34.2-5
	c10.1-1.5,20.1-2.9,30.2-4.4c11.5-1.7,23-3.4,34.5-5c7.1-1,14.1-1.8,21.2-2.7C444.4,18.5,443.7,21.1,442.9,23.9z"/>
<path class="st27" d="M79.3,73.1c-1.1,1.5-2.3,3.2-3.8,4.4c-15,11.2-30.1,22.4-45.3,33.8c-4.2-7-8.3-14.2-12.5-21.3
	c-2-3.3-3.5-6.7-3.5-10.7c-0.1-6.9,6.6-15.2,14.5-14.4c6,0.6,12,1.4,18,2.4c7.3,1.2,14.6,2.7,22,4C72,71.9,75.5,72.5,79.3,73.1z"/>
<path class="st28" d="M236.8,39.6c7.8-1.5,15.6-2.9,23.3-4.4c8.6-1.7,17.2-3.4,25.8-5.1c12.5-2.5,25.1-5,37.6-7.5
	c9.4-1.9,18.9-3.6,28.4-5.5c11.6-2.3,23.2-4.6,34.8-6.9c9.3-1.8,18.7-3.6,28.1-5.4c7.8-1.5,15.5-3.1,23.3-4.6
	c4.4-0.9,10.8,3.2,8.2,10.3c-3.6,0.6-6.8,0.9-9.9,1.4c-11.5,1.6-23,3.3-34.5,5c-10.1,1.5-20.3,3-30.4,4.4c-11.5,1.7-23,3.3-34.5,5
	c-12.6,1.8-25.1,3.7-37.7,5.6c-11.5,1.7-23,3.3-34.5,5c-8.7,1.2-17.4,2.5-26.1,3.7C238.1,40.5,237.4,39.9,236.8,39.6z"/>
<path class="st29" d="M236.6,39.6c0.8,0.3,1.5,0.9,2,0.9c8.7-1.2,17.4-2.5,26.1-3.7c11.5-1.7,23-3.3,34.5-5
	c12.6-1.8,25.1-3.7,37.7-5.6c11.5-1.7,23-3.3,34.5-5c10.1-1.5,20.3-3,30.4-4.4c11.5-1.7,23-3.3,34.5-5c3.2-0.5,6.4-0.8,9.8-1.2
	c-0.1,1.6-0.5,3.2-0.9,5.1c-7.1,1.1-14.2,1.9-21.3,2.9c-11.5,1.6-23,3.3-34.5,5c-10.1,1.5-20.1,2.9-30.2,4.4
	c-11.4,1.7-22.8,3.3-34.2,5c-11.4,1.7-22.8,3.4-34.2,5c-11.5,1.7-23,3.3-34.5,5c-9.1,1.3-18.2,2.7-27.5,4.1c-0.3-3.3,2.1-6.2,5.6-7
	C235.1,39.9,235.7,39.8,236.6,39.6z"/>
<path class="st30" d="M418.2,106.7c-1.1,4.5-2.6,9.1-3.9,13.6c-1.9,6.7-3.7,13.4-5.5,20.1c-0.3,1.3-0.4,2.7-0.6,4.3
	c1.2,5.1,4.5,7.3,9.3,6.4c10.7-2.1,21.5-4.1,32.4-6.3c8.4-1.6,16.5-3.2,24.7-4.7c4.5-0.8,6.9,0.4,9.2,4.7c-0.2,2.4-0.2,4.9-1.1,6.9
	c-2.5,5.6-5.5,11.1-8.6,16.5c-2.2-0.1-4-0.3-5.8-0.1c-11.6,1.6-23.2,3.3-34.8,5c-11.4,1.7-22.8,3.3-34.2,5c-10,1.5-20.1,3-30.1,4.4
	c-11.5,1.7-23,3.3-34.5,5c-11.2,1.6-22.4,3.4-33.6,5c-12.8,1.9-25.7,3.6-38.6,5.5c-14.4,2.1-28.8,4.2-43.2,6.3
	c0.2-4.1,0.4-8.2,0.6-12.6c0.7-11.3,1.3-22.3,2-33.6c0.2-4.7,0.4-9.1,0.7-13.5c0.2-3.3,0.5-6.5,0.9-10c7.1-1.1,14-2,21-2.9
	c11.4-1.6,22.8-3.3,34.2-5c10.1-1.5,20.3-2.9,30.4-4.4c11.6-1.7,23.2-3.3,34.8-5c11.2-1.6,22.4-3.4,33.6-5c11.5-1.7,23-3.4,34.5-5
	C414,107,416,106.9,418.2,106.7z"/>
<path class="st31" d="M304,466.2c2.1-10.3,4.3-20.3,6.4-30.4c0.8-3.5,1.5-7.1,2.2-10.9c1.8-8.7,3.6-17.2,5.7-25.9
	c0.9-0.1,1.5,0.3,2,0.2c6.9-1,13.8-2.1,20.8-3.1c6.8-1,13.7-1.8,20.5-2.7c-3.3,6.5-6.5,13.1-9.8,19.8c-5.2,10.4-10.3,20.6-15.4,30.9
	c-5.7,11.4-11.4,22.9-17.2,34.3c-1.1,2.3-2.5,4.4-3.9,6.6c-2.5,3.9-6.1,5.1-9.7,3.5c-3.7-1.6-5.3-5.3-4.2-9.7
	C302.2,474.8,303.1,470.6,304,466.2z"/>
<path class="st32" d="M361.7,393.3c-7,1-13.8,1.9-20.7,2.8c-6.9,1-13.8,2.1-20.8,3.1c-0.5,0.1-1.1-0.2-1.9-0.4
	c1.8-10.1,3.8-20.1,5.9-30.4c1.3-6.1,2.6-11.9,3.7-17.7c1.1-5.8-4.6-9.9-11.1-8c-9.6,2.9-19.2,5.9-28.9,8.7
	c-2.9,0.8-5.7,2.8-9.2,1.5c-4.8-2.3-5.8-5.9-4.4-10.6c0.3-1,0.4-2.1,1-3.4c12.2-1.9,24.1-3.5,36-5.2c12.7-1.8,25.5-3.8,38.2-5.6
	c13.2-1.9,26.4-3.9,39.7-5.7c2.6-0.4,5.3,0,7.9,0c-1.9,3.8-3.8,7.7-5.7,11.8c-4.2,8.5-8.5,16.7-12.7,25.1
	C373.1,370.6,367.5,381.9,361.7,393.3z"/>
<path class="st33" d="M219.4,204.7c14.5-2.4,28.9-4.5,43.2-6.6c12.8-1.9,25.7-3.6,38.6-5.5c11.2-1.6,22.4-3.4,33.6-5
	c11.5-1.7,23-3.3,34.5-5c10-1.5,20.1-2.9,30.1-4.4c11.4-1.7,22.8-3.3,34.2-5c11.6-1.7,23.2-3.4,34.8-5c1.8-0.2,3.7,0,5.7,0.2
	c-3.3,7.1-6.7,14-10.2,21.1c-7.7,15.6-15.4,30.9-23.1,46.3c-1.2,2.4-2.4,4.7-3.6,7.3c-0.7,1.5-1.4,2.8-2.5,4.2
	c-1.3-0.1-2.3-0.4-3.3-0.3c-10.8,1.5-21.7,3.1-32.5,4.7c-17.1,2.5-34.2,5-51.3,7.5c-11.6,1.7-23.2,3.5-34.8,5.2
	c-7.6,1.1-15.3,2.1-22.9,3.1c0.3-1.5,0.4-3.1,0.8-4.6c0.7-2.9,0.3-5.4-2-7.7c-2.4-2.6-5.2-2.4-8-1.8c-13.7,3.2-27.4,6.3-41.1,9.5
	c-3.1,0.7-6.3,1.5-9.6,2.3c-1.5,0.4-2.9,0.6-4.2,1c-5,1.3-9.6-2.2-9.6-7.4c0-4.2,0.4-8.4,0.6-12.9c0.5-8.5,1.1-16.8,1.6-25.4
	C218.6,215.2,219,210,219.4,204.7z"/>
<path class="st34" d="M289.8,267.6c7.8-1.2,15.4-2.2,23-3.3c11.6-1.7,23.2-3.4,34.8-5.2c17.1-2.5,34.2-5,51.3-7.5
	c10.8-1.6,21.6-3.2,32.5-4.7c0.9-0.1,1.9,0.3,3.1,0.4c-5.6,11.7-11.4,23.4-17.1,35.1c-0.5,1-1,2.1-1.6,3.4
	c-5.4,10.8-10.8,21.5-16.2,32.1c-0.7,1.4-1.4,2.8-2.3,4.3c-2.8,0.1-5.5-0.3-8,0.1c-13.2,1.8-26.4,3.8-39.7,5.7
	c-12.7,1.9-25.5,3.8-38.2,5.6c-11.9,1.7-23.8,3.3-35.9,5c1-6.3,2.3-12.7,3.6-19.2c2.1-10.7,4.1-21.2,6.2-31.7
	c0.1-0.4,0.3-0.7,0.4-1.3C287,280.1,288.3,274,289.8,267.6z"/>
</svg>
