<?xml version="1.0" encoding="utf-8"?>
<!-- Generator: Adobe Illustrator 26.5.3, SVG Export Plug-In . SVG Version: 6.00 Build 0)  -->
<svg version="1.1" id="Layer_1" xmlns="http://www.w3.org/2000/svg" xmlns:xlink="http://www.w3.org/1999/xlink" x="0px" y="0px"
	 viewBox="0 0 612 530.6" style="enable-background:new 0 0 612 530.6;" xml:space="preserve">
<style type="text/css">
	.st0{fill:#41B883;}
	.st1{fill:#34495E;}
	.st2{fill:#366166;}
</style>
<path class="st0" d="M490.2,0c40.9,0,81.7,0,122.5,0.3c-0.1,0.4-0.2,0.5-0.2,0.6c0,0.1,0,0.2,0.1,0.2c0.1,0,0.2,0,0.2-0.1
	c0,0.2,0,0.5-0.1,0.7c-0.6,0.7-1.2,1.3-1.6,2c-5.2,9-10.4,18-15.6,27c-7.5,12.9-15,25.7-22.4,38.6c-7.1,12.3-14.1,24.6-21.2,36.9
	c-7.7,13.4-15.5,26.8-23.2,40.2c-9.6,16.7-19.3,33.3-28.9,50c-14.1,24.5-28.2,49-42.3,73.5c-10.1,17.4-20.2,34.8-30.2,52.2
	c-7,12.1-13.9,24.3-20.9,36.4c-7.4,12.9-15,25.7-22.4,38.6c-7.1,12.3-14.1,24.6-21.2,36.9c-7.7,13.4-15.5,26.8-23.3,40.2
	c-9.6,16.7-19.3,33.3-28.9,50c-1.2,2.1-2.2,4.2-3.3,6.3c0,0-0.3,0-0.4-0.2c-4.2-7.2-8.3-14.1-12.3-21.1
	c-5.1-8.9-10.1-17.7-15.2-26.6c-4.6-8-9.3-15.9-13.9-23.8c-7.1-12.2-14.1-24.4-21.1-36.6c-8.2-14.2-16.3-28.5-24.5-42.7
	c-6.6-11.5-13.3-22.8-20-34.3c-5.1-8.8-10-17.6-15.1-26.4c-4.6-8-9.3-16-14-24.1c-4.8-8.4-9.6-16.8-14.5-25.2
	c-8.6-14.9-17.2-29.7-25.8-44.6c-8.4-14.5-16.8-29-25.2-43.5c-4.8-8.3-9.5-16.7-14.3-25.1c-5.4-9.4-10.8-18.7-16.3-28.1
	c-6.6-11.4-13.2-22.7-19.8-34.1c-5.7-9.9-11.3-19.8-17-29.7c-4.5-7.9-9.1-15.8-13.7-23.6C19.2,32.1,14.1,23.3,9,14.6
	C6.8,10.6,4.5,6.6,2.2,2.7C1.8,2.1,1.7,1,0.5,1c0-0.3,0-0.7,0-1c40.9,0,81.7,0,122.8,0.2c0.4,0.4,0.5,0.7,0.7,1.1
	c0.2,0.5,0.4,0.8,0.5,1.1c11.7,20.2,23.3,40.4,35,60.7c21.5,37.2,43,74.5,64.5,111.7c27.2,47.1,54.4,94.2,81.5,141.2
	c0.3,0.6,0.8,1.1,1.3,1.9c0.7-1.1,1.2-2,1.7-2.9c11.9-20.6,23.8-41.2,35.7-61.8c20.8-36,41.5-71.9,62.3-107.9
	c23-39.8,46-79.7,69-119.5c4.7-8.2,9.4-16.4,14.2-24.8C490.1,0.6,490.1,0.3,490.2,0z"/>
<path class="st1" d="M489.8,1.1c-4.7,8.2-9.4,16.5-14.1,24.7c-23,39.8-46,79.7-69,119.5c-20.8,36-41.5,71.9-62.3,107.9
	c-11.9,20.6-23.8,41.2-35.7,61.8c-0.5,0.9-1.1,1.7-1.7,2.9c-0.6-0.8-1-1.3-1.3-1.9c-27.2-47.1-54.4-94.2-81.5-141.2
	c-21.5-37.2-43-74.5-64.5-111.7c-11.7-20.2-23.3-40.4-35-60.7c-0.2-0.3-0.3-0.6-0.3-1.2c1.5-0.4,2.9-0.7,4.2-0.7
	c36,0,72,0,108.1,0.1c0.6,0.8,1.1,1.6,1.5,2.3c12.2,21.1,24.4,42.2,36.5,63.3c10.2,17.7,20.5,35.5,30.7,53.2c0.4,0.8,1,1.5,1.6,2.5
	c0.8-1.3,1.3-2.1,1.8-3c8.7-15.1,17.4-30.3,26.2-45.4c13.7-23.8,27.5-47.5,41.2-71.3c0.4-0.7,0.6-1.4,0.8-2.1c0,0,0.3,0,0.6,0.1
	c1.7,0.2,3,0.4,4.4,0.4c34.5,0,69,0,103.6,0C487,0.5,488.4,0.9,489.8,1.1z"/>
<path class="st2" d="M236.1,0c0.2,0,0.3,0.2,0.4,0.4c-36,0.1-72,0.1-108,0.2c-1.4,0-2.7,0.2-4.3,0.5c-0.3-0.2-0.5-0.4-0.6-0.9
	C161,0,198.4,0,236.1,0z"/>
<path class="st2" d="M489.9,1c-1.5-0.1-3-0.5-4.4-0.5c-34.5,0-69,0-103.6,0c-1.4,0-2.7-0.2-4.3-0.4C414.9,0,452.3,0,490,0
	C490.1,0.3,490.1,0.6,489.9,1z"/>
<path d="M612.8,0.9c-0.1,0.2-0.2,0.2-0.2,0.2c-0.1,0-0.1-0.1-0.1-0.2c0-0.1,0.1-0.1,0.2-0.3C612.8,0.5,612.8,0.8,612.8,0.9z"/>
</svg>
