<?xml version="1.0" encoding="utf-8"?>
<!-- Generator: Adobe Illustrator 26.5.3, SVG Export Plug-In . SVG Version: 6.00 Build 0)  -->
<svg version="1.1" id="Layer_1" xmlns="http://www.w3.org/2000/svg" xmlns:xlink="http://www.w3.org/1999/xlink" x="0px" y="0px"
	 viewBox="0 0 455.9 489.5" style="enable-background:new 0 0 455.9 489.5;" xml:space="preserve">
<style type="text/css">
	.st0{fill:#C3002F;}
	.st1{fill:#DD0031;}
	.st2{fill:#FFFFFF;}
	.st3{fill:#F7DCE2;}
</style>
<path class="st0" d="M228.2,0.1c2.1,0.7,4.3,1.4,6.4,2.1c4.3,1.5,8.6,3,12.8,4.5c9.6,3.5,19.2,7,28.8,10.4
	c10.5,3.7,21,7.4,31.5,11.1c6.7,2.4,13.4,4.8,20.1,7.2c10.3,3.7,20.6,7.3,31,11c6.7,2.4,13.4,4.8,20.1,7.2
	c12.3,4.4,24.6,8.8,36.9,13.2c9.5,3.4,19,6.7,28.5,10c3.5,1.2,7,2.6,10.5,3.8c0.8,0.3,1.2,0.6,1.1,1.5c-0.4,3-0.8,5.9-1.1,8.9
	c-0.2,2-0.4,4-0.7,6c-0.4,3.2-0.8,6.4-1.2,9.6c-0.3,3-0.6,6.1-0.9,9.1c-0.4,3.1-0.8,6.1-1.2,9.2c-0.3,2.9-0.6,5.8-0.9,8.6
	c-0.4,3.1-0.8,6.1-1.1,9.2c-0.3,2.9-0.6,5.8-1,8.6c-0.4,3.2-0.8,6.4-1.2,9.6c-0.3,3-0.6,6.1-0.9,9.1c-0.4,3.1-0.8,6.1-1.1,9.2
	c-0.3,2.9-0.6,5.8-0.9,8.6c-0.4,3.1-0.8,6.1-1.1,9.2c-0.3,2.9-0.6,5.8-1,8.6c-0.4,3.2-0.8,6.4-1.2,9.6c-0.3,3-0.6,6.1-0.9,9.1
	c-0.4,3.1-0.8,6.1-1.1,9.2c-0.3,2.9-0.6,5.8-0.9,8.6c-0.4,3.1-0.8,6.1-1.1,9.2c-0.3,2.9-0.6,5.8-1,8.6c-0.4,3.2-0.8,6.4-1.2,9.6
	c-0.3,3-0.6,6-0.9,8.9c-0.3,3.1-0.7,6.1-1.1,9.2c-0.2,2-0.4,4-0.7,6c-0.4,3.2-0.8,6.4-1.2,9.6c-0.3,2.8-0.6,5.7-0.9,8.5
	c-0.4,3.2-0.8,6.3-1.2,9.5c-0.3,3-0.6,6.1-0.9,9.1c-0.3,3-0.8,6-1.1,9c-0.3,3-0.6,6-1,8.9c-0.3,3.1-0.7,6.1-1.1,9.2
	c-0.2,2-0.4,4-0.7,6c-0.4,3.2-0.8,6.4-1.2,9.6c-0.3,3-0.6,6.1-1,9.2c-4.6,2.5-9.3,5.1-13.9,7.7c-6,3.3-12,6.7-17.9,10.1
	c-4.2,2.3-8.4,4.5-12.5,6.8c-6.1,3.4-12.2,6.8-18.2,10.1c-3.9,2.2-7.9,4.3-11.8,6.5c-6.1,3.4-12.2,6.8-18.4,10.2
	c-4.1,2.3-8.2,4.4-12.3,6.7c-6.2,3.4-12.3,6.9-18.5,10.3c-3.8,2.1-7.6,4.2-11.4,6.3c-6.3,3.5-12.5,7-18.8,10.4
	c-3.9,2.2-7.9,4.3-11.9,6.5c-6.3,3.5-12.7,7.1-19,10.6c-2.7,1.5-5.5,3-8.4,4.4c-0.2-0.8-0.3-1.6-0.3-2.3c0-61.7,0-123.3,0.1-185
	c19.7,0,39.3,0,58.9-0.1c0.9,0,1.4,0.3,1.7,1.2c2.9,7.3,5.9,14.7,8.8,22c5.2,13,10.4,26.1,15.7,39.1c1.2,3.1,2.5,6.1,3.7,9.2
	c13.5,0,26.9,0,40.2,0c4.2,0,8.4,0,12.6,0c0.1-0.1,0-0.3,0-0.5c-0.1-0.2-0.1-0.3-0.1-0.4C324.9,272.5,280.4,172.2,235.8,72
	c-2.6-5.9-5.3-11.8-7.9-17.8c0-17.5,0-34.9,0-52.3C227.9,1.3,228.1,0.7,228.2,0.1z"/>
<path class="st1" d="M228.1,0c-0.1,0.7-0.3,1.3-0.3,2c0,17.4,0,34.8-0.1,52.3c-47.5,106.5-94.9,212.8-142.4,319.3
	c0.5,0,0.8,0.1,1.1,0.1c16.9,0,33.9,0,50.8,0c1,0,1.4-0.4,1.7-1.2c3-7.6,6.1-15.2,9.1-22.8c6-15,11.9-30.1,17.9-45.1
	c0.9-2.4,0.9-2.4,3.6-2.4c18.8,0,37.6,0,56.5,0c0.6,0,1.2,0,1.8,0.1c0,61.7,0,123.3,0,185c0,0.7,0.1,1.5,0.2,2.3
	c-0.2,0.1-0.5,0.2-0.6,0.1c-4.5-2.4-8.9-4.9-13.4-7.4c-7.7-4.3-15.5-8.7-23.2-13c-5.2-2.9-10.4-5.7-15.6-8.5
	c-6.9-3.8-13.7-7.7-20.6-11.5c-5.2-2.9-10.4-5.7-15.6-8.5c-6.8-3.8-13.7-7.7-20.5-11.5c-4.2-2.3-8.4-4.6-12.6-6.9
	c-5.8-3.2-11.6-6.5-17.4-9.7c-4.1-2.3-8.2-4.5-12.4-6.8c-6.2-3.4-12.4-6.9-18.6-10.4c-4.2-2.3-8.5-4.6-12.8-7
	c-3.3-1.8-6.5-3.6-9.7-5.5c-0.6-0.4-0.8-1.6-0.9-2.5c-0.7-5.1-1.2-10.2-1.8-15.3c-0.4-4-0.8-8-1.2-12c-0.4-3.7-1-7.5-1.5-11.2
	c-0.4-3-0.6-6.1-0.9-9.1c-0.3-3-0.8-6-1.1-9c-0.3-2.9-0.6-5.8-0.9-8.6c-0.4-3.2-0.8-6.4-1.2-9.6c-0.3-2.8-0.6-5.7-0.9-8.5
	c-0.4-3.2-0.8-6.3-1.2-9.5c-0.2-2-0.4-4.1-0.6-6.2c-0.4-3.1-0.8-6.2-1.2-9.3c-0.3-3-0.6-6-0.9-8.9c-0.3-3.1-0.7-6.1-1.1-9.2
	c-0.2-2-0.4-4-0.7-6c-0.4-3.2-0.8-6.4-1.2-9.6c-0.3-3-0.6-6-0.9-8.9c-0.3-3.1-0.7-6.1-1.1-9.2c-0.2-1.9-0.4-3.9-0.7-5.8
	c-0.5-4.1-1-8.2-1.5-12.3c-0.3-3-0.6-6.1-0.9-9.1c-0.3-3-0.8-6-1.1-9c-0.3-3-0.6-6-0.9-8.9c-0.3-3.1-0.7-6.1-1.1-9.2
	c-0.2-1.9-0.4-3.9-0.7-5.8c-0.5-4.1-1-8.2-1.5-12.3c-0.3-3-0.6-6.1-0.9-9.1c-0.3-3-0.8-6-1.1-9c-0.3-3-0.6-6-0.9-8.9
	c-0.3-3.1-0.7-6.1-1.1-9.2c-0.2-2-0.4-4.1-0.7-6.1c-0.5-3.9-1-7.9-1.4-11.8c-0.3-2.9-0.6-5.9-0.9-8.8c0-0.1,0-0.3,0-0.4
	c0-1-0.4-2.4,0.1-3c0.5-0.7,1.9-0.9,2.9-1.3c8.2-2.9,16.5-5.8,24.7-8.7c8.7-3.1,17.5-6.2,26.2-9.3c6.9-2.5,13.8-5,20.8-7.4
	c11.5-4.1,23-8.2,34.4-12.3c7.1-2.5,14.1-5.1,21.2-7.6c12.5-4.5,25.1-9,37.6-13.4c10.3-3.7,20.6-7.3,30.9-11
	c7.3-2.6,14.5-5.2,21.8-7.8C223.1,1.6,225.6,0.8,228.1,0z"/>
<path class="st2" d="M228,302.2c-0.7,0-1.3,0-1.9,0c-18.8,0-37.6,0-56.5,0c-2.6,0-2.6,0-3.6,2.4c-6,15-11.9,30.1-17.9,45.1
	c-3,7.6-6.1,15.2-9.1,22.8c-0.3,0.8-0.7,1.2-1.7,1.2c-16.9,0-33.9,0-50.8,0c-0.3,0-0.6,0-1.1-0.1c47.5-106.4,94.9-212.7,142.4-319.1
	c2.7,5.8,5.4,11.7,8,17.6c44.6,100.2,89.1,200.5,133.7,300.7c0,0.1,0.1,0.2,0.1,0.5c0,0.3,0,0.3,0,0.4c-4.2,0-8.4,0-12.5,0
	c-13.3,0-26.7,0-40.2,0c-1.2-3-2.5-6.1-3.7-9.2c-5.2-13-10.4-26.1-15.7-39.1c-2.9-7.3-5.9-14.7-8.8-22c-0.4-0.9-0.8-1.2-1.7-1.2
	C267.3,302.2,247.7,302.2,228,302.2 M227.7,158.6c-6.2,14.8-12.4,29.7-18.6,44.5c-6.8,16.4-13.6,32.7-20.4,49.1
	c-0.8,1.9-1.5,3.8-2.4,5.8c7.5,0,14.8,0,22.2,0c6.5,0,12.9,0,19.7,0c13.7,0,27.4,0,41.3,0c-1.5-3.7-2.9-7.1-4.4-10.6
	c-6.7-16.1-13.4-32.1-20.1-48.2c-5.5-13.2-11-26.5-16.5-39.8C228.3,159.1,228.1,158.8,227.7,158.6z"/>
<path class="st3" d="M369.6,373.6c-0.1-0.1-0.1-0.1,0-0.3C369.6,373.3,369.6,373.5,369.6,373.6z"/>
<path class="st1" d="M227.9,258c-6.5,0-12.9,0.1-19.4,0.1c-7.3,0-14.6,0-22.2,0c0.8-2,1.6-3.9,2.4-5.8c6.8-16.4,13.6-32.7,20.4-49.1
	c6.2-14.8,12.4-29.7,18.7-44.4C227.9,191.9,227.9,224.9,227.9,258z"/>
<path class="st0" d="M228,258c-0.1-33.1-0.1-66.1-0.1-99.3c0.2,0.2,0.5,0.4,0.6,0.8c5.5,13.3,11,26.5,16.5,39.8
	c6.7,16.1,13.4,32.1,20.1,48.2c1.4,3.5,2.9,6.9,4.4,10.6C255.6,258,241.9,258,228,258z"/>
</svg>
