<?xml version="1.0" encoding="utf-8"?>
<!-- Generator: Adobe Illustrator 26.5.3, SVG Export Plug-In . SVG Version: 6.00 Build 0)  -->
<svg version="1.1" id="Layer_1" xmlns="http://www.w3.org/2000/svg" xmlns:xlink="http://www.w3.org/1999/xlink" x="0px" y="0px"
	 viewBox="0 0 539.7 612" style="enable-background:new 0 0 539.7 612;" xml:space="preserve">
<style type="text/css">
	.st0{fill:#264DE4;}
	.st1{fill:#2965F1;}
	.st2{fill:#EAEAEB;}
	.st3{fill:#EBEBEB;}
	.st4{fill:#2A66F1;}
	.st5{fill:#FFFFFF;}
</style>
<path class="st0" d="M275.4,612c-3.6,0-7.2,0-10.9-0.2c-1.6-0.8-3-1.6-4.5-2c-9.5-2.6-19-5.1-28.4-7.8c-14.5-4-29-8.1-43.5-12.2
	c-17.3-4.8-34.5-9.7-51.8-14.5c-14.9-4.1-29.8-8.2-44.6-12.3c-14.2-3.9-28.5-7.9-42.8-11.9c-1-12.5-2-24.7-3-37c-0.5-6-1-12-1.6-18
	c-1-10.6-2-21.3-3-31.9c-0.6-6.5-1-13.1-1.6-19.6c-1-10.4-2-20.7-3-31.1c-0.6-6.6-1-13.3-1.6-20c-0.9-10-2.1-20-3-30
	c-0.6-7-1-14.1-1.6-21.1c-0.9-10.9-2-21.8-3-32.7c-0.6-6.5-1-13.1-1.6-19.6c-0.9-10-2.1-20-3-30c-0.6-7-1-14.1-1.6-21.1
	c-0.9-10.9-2-21.8-3-32.7c-0.6-6.3-1-12.5-1.6-18.8c-1-10.4-2-20.8-3-31.2c-0.6-6.9-1-13.8-1.6-20.7c-0.9-9.9-2.1-19.7-3-29.6
	c-0.7-7.2-1-14.3-1.6-21.5c-0.9-10.9-2-21.8-3-32.7C4,45.6,3.6,39.3,3,33C2,22,1,11,0,0c179.8,0,359.6,0,539.7,0.3
	c-0.2,7.6-0.6,14.9-1.2,22.2c-0.9,10.6-2,21.3-3,31.9c-0.6,6.5-1,13.1-1.6,19.6c-1,10.8-2,21.5-3,32.3c-0.6,6.3-1,12.5-1.6,18.8
	c-1,10.9-2,21.8-3,32.7c-0.6,6.3-1,12.5-1.6,18.8c-1,10.4-2,20.8-3,31.1c-0.6,6.6-1,13.3-1.6,20c-0.9,10.3-2.1,20.5-3,30.8
	c-0.6,7-1,14.1-1.6,21.1c-0.9,10.6-2,21.3-3,31.9c-0.6,6.5-1,13.1-1.6,19.6c-1,10.6-2,21.3-3,31.9c-0.6,6.4-1,12.8-1.6,19.2
	c-0.9,10-2.1,20-3,30c-0.6,7-1,14.1-1.6,21.1c-0.9,9.9-2.1,19.7-3,29.6c-0.7,7.2-0.9,14.3-1.6,21.5c-1.2,12.6-2.6,25.2-3.8,37.9
	c-0.9,9.6-1.6,19.3-2.3,28.8c-17.8,4.9-35.3,9.8-52.8,14.6c-25.8,7.2-51.6,14.3-77.4,21.5c-28.1,7.8-56.2,15.5-84.3,23.3
	C276.1,610.7,275.8,611.5,275.4,612 M270.1,317.7c0,35.6,0,71.2-0.6,106.9c-24.2-6.5-48.4-12.9-72.6-19.5c-1-0.3-2.3-1.9-2.4-3
	c-1-9-1.7-18-2.5-27c-0.7-8.1-1.5-16.1-2.3-24.1c-22.8,0-45.1,0-67.7,0c1.2,13.6,2.4,26.8,3.5,39.9c1.9,20.9,3.7,41.9,5.5,62.8
	c0.2,2.2,1.1,3.3,3.3,3.8c7,1.8,14,3.8,21,5.8c38.3,10.6,76.5,21.2,114.8,32.5c0,15.7,0,31.4,0,47c0,6,0.1,12,0,18
	c0,3.2,1.3,4.1,4.3,3.2c2.9-0.9,5.9-1.6,8.8-2.4c38.4-10.7,76.9-21.3,115.3-32c15.5-4.3,31-8.5,46.4-13c1.6-0.5,3.8-2.3,4-3.7
	c1.1-9.1,1.8-18.2,2.5-27.3c0.9-9.9,1.7-19.8,2.5-29.6c1.2-13,2.4-26.1,3.6-39.1c1.1-12.7,2.2-25.3,3.3-38
	c1.2-12.9,2.4-25.8,3.6-38.7c1.1-12.8,2.1-25.6,3.3-38.4c1.2-12.9,2.4-25.8,3.6-38.7c1.1-12.8,2.1-25.6,3.3-38.4
	c1.2-12.9,2.5-25.8,3.6-38.7c1.1-12.8,2.1-25.6,3.3-38.4c1.4-15.6,2.9-31.1,4.4-46.7c1.5-16.7,3-33.4,4.5-50.1
	c0.4-4.6-0.2-5.4-4.8-5.4c-70.1,0-140.2,0-210.3,0c-4.9,0-5.1,0.2-5.1,5.3c0,20.6,0,41.3-0.7,62.1c-56.1,0-112.1,0-168.6,0
	c0.2,2.9,0.3,5.3,0.5,7.7c1.7,18.4,3.5,36.8,4.9,55.2c0.3,3.6,1.1,4.9,5.1,4.9c51.1-0.2,102.2-0.1,153.4-0.1c1.8,0,3.5,0.2,5.3,1
	c0,22.7,0,45.3-0.7,68.1c-52.1,0-104.1,0-156.5,0c2,22.8,4,44.9,6,67.5c1.8,0,3.3,0,4.8,0c47.2,0,94.3,0,141.5,0
	C266.8,316.8,268.4,316.9,270.1,317.7z"/>
<path class="st1" d="M270.1,112.4c0-20.6,0-41.3,0-61.9c0-5.1,0.1-5.3,5.1-5.3c70.1,0,140.2,0,210.3,0c4.7,0,5.3,0.8,4.8,5.4
	c-1.5,16.7-3,33.4-4.5,50.1c-1.4,15.6-3,31.1-4.4,46.7c-1.2,12.8-2.1,25.6-3.3,38.4c-1.2,12.9-2.5,25.8-3.6,38.7
	c-1.1,12.8-2.1,25.6-3.3,38.4c-1.1,12.9-2.4,25.8-3.6,38.7c-1.1,12.8-2.1,25.6-3.3,38.4c-1.1,12.9-2.4,25.8-3.6,38.7
	c-1.1,12.7-2.2,25.3-3.3,38c-1.2,13-2.4,26.1-3.6,39.1c-0.9,9.9-1.7,19.8-2.5,29.6c-0.8,9.1-1.4,18.3-2.5,27.3
	c-0.2,1.4-2.4,3.2-4,3.7c-15.4,4.5-30.9,8.7-46.4,13c-38.4,10.7-76.9,21.3-115.3,32c-2.9,0.8-5.9,1.5-8.8,2.4c-3,0.9-4.3,0-4.3-3.2
	c0.1-6,0-12,0-18c0-15.7,0-31.4,0-47.5c0-0.4,0-0.6,0.3-0.6c18.7-5.1,37.1-10.1,55.5-15.2c26.4-7.3,52.7-14.7,79.1-21.9
	c2.6-0.7,3.7-1.8,3.8-4.6c0.1-4.8,0.9-9.6,1.3-14.5c2.9-32.9,5.8-65.8,8.7-98.6c3.2-35.5,6.4-71.1,9.6-106.6
	c3-33.9,6.1-67.8,9.1-101.7c0.6-6.3,1-12.6,1.6-19.3c-1.6,0-2.9,0-4.1,0c-53.8,0-107.6,0-161.4,0c-1.1,0-2.3,0.1-3.4,0.1
	C270,112.5,270.1,112.4,270.1,112.4z"/>
<path class="st2" d="M270.1,495.1c-38.3-10.5-76.5-21.1-114.8-31.7c-7-1.9-13.9-4-21-5.8c-2.3-0.6-3.1-1.6-3.3-3.8
	c-1.8-20.9-3.7-41.9-5.5-62.8c-1.2-13.2-2.3-26.4-3.5-39.9c22.6,0,44.9,0,67.7,0c0.7,7.9,1.5,16,2.3,24.1c0.8,9,1.5,18,2.5,27
	c0.1,1.1,1.4,2.7,2.4,3c24.2,6.6,48.4,13.1,72.9,19.6c0.3,0,0.3,0.2,0.3,0.5c0,23.5,0,46.6,0,69.7C270,494.9,270.1,495,270.1,495.1z
	"/>
<path class="st2" d="M270,180.5c-1.8-0.1-3.5-0.3-5.3-0.3c-51.1,0-102.2-0.1-153.4,0.1c-4,0-4.8-1.2-5.1-4.9
	c-1.5-18.4-3.3-36.8-4.9-55.2c-0.2-2.4-0.3-4.8-0.5-7.7c56.5,0,112.5,0,168.9-0.1c0.4-0.1,0.3,0.1,0.3,0.5c0,22.6,0,44.8,0,67.1
	C270.1,180.2,270,180.5,270,180.5z"/>
<path class="st3" d="M270.1,317c-1.7-0.1-3.3-0.2-5-0.2c-47.2,0-94.3,0-141.5,0c-1.5,0-3,0-4.8,0c-2-22.5-4-44.7-6-67.5
	c52.4,0,104.5,0,156.9,0c0.4,0,0.3,0.2,0.3,0.5c0,22.5,0,44.7,0,66.9C270.1,316.8,270.1,317,270.1,317z"/>
<path class="st4" d="M270.1,424.6c0-35.7,0-71.3,0-107.2c0-0.3,0-0.5,0.3-0.5c27.6,0,54.8,0,82.5,0c-0.4,4.2-0.7,8-1,11.7
	c-2.1,24.1-4.3,48.2-6.4,72.3c-0.2,2.8-1.2,4-4.1,4.8c-23.9,6.3-47.6,12.8-71.5,19.2C270,424.8,270.1,424.7,270.1,424.6z"/>
<path class="st1" d="M270,180.8c0-0.4,0-0.6,0.4-0.7c31.7-0.1,62.9-0.1,94.6-0.1c-2.1,23.4-4.1,46.2-6.2,69.3c-1.8,0-3.3,0-4.8,0
	c-28,0-56,0.1-84.1,0.1c0,0,0-0.1,0-0.2C270.1,226.5,270,203.9,270,180.8z"/>
<path class="st5" d="M270,249.9c28-0.4,56-0.4,84.1-0.5c1.5,0,3,0,4.8,0c2.1-23.1,4.1-45.9,6.2-69.3c-31.6,0-62.9,0-94.6-0.1
	c-0.4-22.3-0.4-44.4-0.4-67c1.1-0.4,2.3-0.5,3.4-0.5c53.8,0,107.6,0,161.4,0c1.3,0,2.5,0,4.1,0c-0.6,6.7-1,13-1.6,19.3
	c-3,33.9-6,67.8-9.1,101.7c-3.2,35.5-6.5,71.1-9.6,106.6c-2.9,32.9-5.8,65.7-8.7,98.6c-0.4,4.8-1.1,9.6-1.3,14.5
	c-0.1,2.8-1.1,3.9-3.8,4.6c-26.4,7.2-52.7,14.6-79.1,21.9c-18.4,5.1-36.8,10.2-55.5,15.2c-0.3-23.1-0.3-46.2-0.3-69.7
	c23.8-6.8,47.6-13.3,71.4-19.6c2.9-0.8,3.9-2,4.1-4.8c2.1-24.1,4.2-48.2,6.4-72.3c0.3-3.8,0.6-7.5,1-11.7c-27.7,0-55,0-82.5-0.1
	C270,294.5,270,272.4,270,249.9z"/>
</svg>
