<?xml version="1.0" encoding="utf-8"?>
<!-- Generator: Adobe Illustrator 26.5.3, SVG Export Plug-In . SVG Version: 6.00 Build 0)  -->
<svg version="1.1" id="Layer_1" xmlns="http://www.w3.org/2000/svg" xmlns:xlink="http://www.w3.org/1999/xlink" x="0px" y="0px"
	 viewBox="0 0 599.8 604.7" style="enable-background:new 0 0 599.8 604.7;" xml:space="preserve">
<style type="text/css">
	.st0{fill:#0075C9;}
	.st1{fill:#00C4B3;}
	.st2{fill:#22D3C5;}
	.st3{fill:#00A8E1;}
</style>
<path class="st0" d="M0.3,325.7c0-2.3,0-4.6,0.1-7c0.3-0.7,0.4-1.3,0.6-1.9c0.8-3.4,2.2-6.4,4.4-9.1c2.5-3.2,4.5-6.8,6.8-10.2
	c7.4-11.2,14.7-22.3,22.1-33.5c7.2-10.9,14.4-21.7,21.5-32.6c7.4-11.2,14.7-22.3,22.1-33.5c4.4-6.6,8.8-13.2,13.2-19.9
	c6.9-10.4,13.8-20.8,20.6-31.3c4.3-6.5,8.6-13,13-19.6c0.8-1.5,1.9-1.5,3.3-1.5c98.2,0.4,196.4-0.8,294.7,0.6c0.9,0,1.9,0,2.8,0.2
	c4.4,0.8,8.9,1.7,13.3,2.5c0.4,0.1,0.9-0.2,1.4-0.3c0.2,0,0.4,0,0.5,0.2c2.5,7.2,5,14.2,7.4,21.2c4.6,13.1,9.2,26.2,13.8,39.3
	c8.2,23.4,16.5,46.7,24.7,70.1c4.7,13.4,9.4,26.8,14.1,40.2c8.2,23.4,16.5,46.7,24.7,70.1c3.5,10,7,19.9,10.5,29.9
	c4.5,12.6,8.9,25.3,13.3,37.9c0.2,0.7,0.2,1.7-0.1,2.4c-1.8,4.2-3.7,8.4-5.5,12.6c-8.4,18.9-16.8,37.8-25.2,56.8
	c-1,2.2-1.8,4.4-2.7,6.7c-0.1,0-0.2,0-0.3,0c-0.7-0.6-1.3-1.1-1.8-1.7c-116-116-232-232-348.1-348.1c-12.7-12.7-25.5-25.5-38.2-38.2
	c-0.4-0.4-0.8-0.7-1.5-1.4c0,1.1,0,1.8,0,2.5c0,92.5,0,185,0,277.6c0,4.6,0.2,9.3,0.4,13.9c0.1,2,0.1,4.1,0.4,6.1
	c0.9,5.1,1.9,10.2,2.8,15.3c-0.2,0.1-0.2,0.2-0.4,0.2c-2.4-0.9-4.7-1.8-7-2.6c-10.5-3.7-21.1-7.4-31.6-11.1c-2.8-1-5.5-1.9-7.4-4.5
	c-1.2-1.6-2.8-3.1-4.2-4.6c-12.6-12.7-25.2-25.4-37.8-38.1c-8.1-8.2-16.3-16.3-24.4-24.4c-1.1-1.1-2.1-2.2-3.1-3.4
	c-4-4.9-7.4-10-9.8-15.9c-1.5-3.6-2.7-7.3-3-11.3C0.8,326.2,0.5,326,0.3,325.7z"/>
<path class="st1" d="M124.7,127.2c-0.5-1.5,0.2-2.2,1.5-3c7.6-4.9,15-10,22.6-15c5.3-3.5,10.5-6.9,15.8-10.4
	c11.2-7.4,22.4-14.8,33.5-22.2c5.3-3.5,10.5-6.9,15.8-10.4c11.1-7.4,22.3-14.7,33.4-22.1c10.4-6.8,20.8-13.7,31.1-20.5
	c9-6,18.1-11.9,27.1-17.9c2.8-1.9,5.5-3.7,8.7-4.6c1.2-0.3,2.3-0.6,3.4-1c2.2-0.1,4.5-0.1,7-0.1c0.4,0.2,0.6,0.5,0.9,0.6
	c4.1,0.4,8,1.7,11.7,3.3c5.2,2.3,10,5.2,14.2,8.9c1,0.8,1.9,1.7,2.8,2.6c15.2,15.1,30.5,30.3,45.7,45.4c7.5,7.5,15,14.9,22.6,22.3
	c2.1,2,3.4,4.3,4.3,7c2.7,8.1,5.5,16.1,8.3,24.2c1.6,4.8,3.2,9.6,4.9,14.5c-0.4,0.2-0.9,0.5-1.3,0.4c-4.4-0.8-8.9-1.7-13.3-2.5
	c-0.9-0.2-1.9-0.2-2.8-0.2c-98.2-1.4-196.4-0.2-294.7-0.6C126.7,125.7,125.5,125.8,124.7,127.2z"/>
<path class="st1" d="M515.7,516.1c0.2,0.2,0.2,0.3,0.2,0.6c-0.6,0.3-1.1,0.4-1.6,0.6c-7.4,3.3-14.7,6.5-22.1,9.8
	c-10,4.4-20,8.9-30,13.3c-7.5,3.3-15,6.7-22.5,9.9c-0.6,0.3-1.5,0.2-2.1,0c-7.6-2.6-15.1-5.3-22.7-8c-20.2-7.1-40.5-14.3-60.7-21.4
	c-11.5-4-22.9-8-34.4-12.1c-21.5-7.6-43.1-15.2-64.6-22.8c-10.9-3.9-21.9-7.7-32.8-11.5c-20-7.1-40-14.1-60-21.2
	c-7.5-2.6-14.9-5.3-22.4-7.9c-3.4-1.2-6.8-2.3-10.2-3.4c-1-5.1-2-10.2-2.9-15.2c-0.3-2-0.4-4.1-0.4-6.1c-0.2-4.6-0.4-9.3-0.4-13.9
	c0-92.5,0-185,0-277.6c0-0.7,0-1.4,0-2.5c0.7,0.6,1.1,1,1.5,1.4c12.7,12.7,25.5,25.5,38.2,38.2c116,116,232,232,348.1,348.1
	C514.5,514.9,515.1,515.5,515.7,516.1z"/>
<path class="st2" d="M129.7,442c3.5,1.1,6.9,2.2,10.3,3.3c7.5,2.6,14.9,5.3,22.4,7.9c20,7.1,40,14.1,60,21.2
	c10.9,3.9,21.9,7.7,32.8,11.5c21.5,7.6,43.1,15.2,64.6,22.8c11.5,4,22.9,8,34.4,12.1c20.2,7.1,40.5,14.3,60.7,21.4
	c7.6,2.7,15.1,5.3,22.7,8c0.6,0.2,1.5,0.2,2.1,0c7.5-3.3,15-6.6,22.5-9.9c10-4.4,20-8.8,30-13.3c7.4-3.3,14.7-6.5,22.1-9.8
	c0.5-0.2,1-0.4,1.6-0.6c-1.9,6.4-3.8,12.7-5.8,19.1c-1.4,4.4-2.8,8.7-4.2,13.1c-2.1,6.5-4.1,13-6.1,19.5c-2,6.4-4,12.7-5.9,19.1
	c-1.8,5.8-3.6,11.5-5.4,17.4c-0.6,0-1.2,0-1.7,0c-38.8,0-77.7,0-116.5,0c-35.3,0-70.7-0.2-106-0.3c-0.7,0-1.5-0.4-2-0.9
	c-17.1-17-34.1-34.1-51.1-51.1c-17.1-17.1-34.4-34-51.4-51.2c-3.4-3.4-6.2-7.5-8.9-11.6c-3-4.5-5.6-9.3-8.2-14
	c-3.9-7-7-14.4-9.6-22.1c-1.2-3.7-2.4-7.4-3.6-11.2C129.4,442.2,129.5,442.1,129.7,442z"/>
<path class="st3" d="M440.8,129c7.1,1.6,14,3.8,20.7,6.7c4.9,2.1,9.7,4.2,14.4,6.7c6.7,3.6,13.1,7.6,19.1,12.3
	c6.1,4.7,11.4,10.2,16.8,15.7c17.4,17.4,34.7,34.8,52,52.3c11.8,11.9,23.5,23.7,35.3,35.6c0.4,0.4,0.5,1,0.6,1.5
	c0.1,0.2,0,0.5,0,0.7c0,75.5,0,151.1,0,226.6c0,1.6-0.4,2.2-2.1,2.6c-2.5,0.5-4.9,1.5-7.3,2.3c-6.2,2.1-12.5,4.1-18.8,6.1
	c-6.1,2-12.2,3.8-18.3,5.8c-9.1,2.9-18.1,5.9-27.2,8.9c-3.3,1.1-6.6,2-10,3c0.8-2.2,1.6-4.5,2.5-6.6c8.4-18.9,16.8-37.9,25.2-56.8
	c1.9-4.2,3.7-8.4,5.5-12.6c0.3-0.7,0.3-1.7,0.1-2.4c-4.4-12.6-8.9-25.3-13.3-37.9c-3.5-10-7-19.9-10.5-29.9
	c-8.2-23.4-16.5-46.7-24.7-70.1c-4.7-13.4-9.4-26.8-14.1-40.2c-8.2-23.4-16.5-46.7-24.7-70.1c-4.6-13.1-9.2-26.2-13.8-39.3
	C445.8,143.1,443.3,136.1,440.8,129z"/>
</svg>
