<?xml version="1.0" encoding="utf-8"?>
<!-- Generator: Adobe Illustrator 26.5.3, SVG Export Plug-In . SVG Version: 6.00 Build 0)  -->
<svg version="1.1" id="Layer_1" xmlns="http://www.w3.org/2000/svg" xmlns:xlink="http://www.w3.org/1999/xlink" x="0px" y="0px"
	 viewBox="0 0 612 369.1" style="enable-background:new 0 0 612 369.1;" xml:space="preserve">
<style type="text/css">
	.st0{fill:#DD0000;}
	.st1{fill:#FFCE00;}
</style>
<path d="M0.5,124.3c0-40.8,0-81.6,0-122.4c203.9,0,407.9,0,612,0c0,40.6,0,81.3-0.2,122.2C408.2,124.3,204.3,124.3,0.5,124.3z"/>
<path class="st0" d="M0.5,124.5c203.9-0.2,407.7-0.2,611.8-0.2c0.2,40.7,0.2,81.3,0,122.2c-204.1,0.2-407.9,0.2-611.8,0.2
	C0.5,206,0.5,165.4,0.5,124.5z"/>
<path class="st1" d="M0.5,246.9c203.9-0.2,407.7-0.2,611.8-0.2c0.2,40.8,0.2,81.6,0.2,122.4c-203.9,0-407.9,0-612,0
	C0.5,328.4,0.5,287.8,0.5,246.9z"/>
</svg>
