<?xml version="1.0" encoding="utf-8"?>
<!-- Generator: Adobe Illustrator 26.5.3, SVG Export Plug-In . SVG Version: 6.00 Build 0)  -->
<svg version="1.1" id="Layer_1" xmlns="http://www.w3.org/2000/svg" xmlns:xlink="http://www.w3.org/1999/xlink" x="0px" y="0px"
	 viewBox="0 0 502 335" style="enable-background:new 0 0 502 335;" xml:space="preserve">
<style type="text/css">
	.st0{fill:#AF1B27;}
	.st1{fill:#1E448B;}
	.st2{fill:#FFFFFF;}
	.st3{fill:#F5DFE1;}
	.st4{fill:#BB3E48;}
	.st5{fill:#42629D;}
	.st6{fill:#E1E5EF;}
</style>
<path class="st0" d="M0,112C0,75,0,38,0,1c167.2,0,334.4,0,502,0c0,36.7,0,73.3,0,110.8c-0.2,0.8-0.3,0.9-0.7,1
	c-0.6-0.2-0.9-0.2-1.7,0.1C335.5,113,172,113,8.4,113c-2.2,0-4.3,0.1-6.4,0.1c0.1-0.1,0-0.3-0.3-0.5c-0.7-0.2-1.1-0.2-1.6-0.3
	C0,112.3,0,112,0,112z"/>
<path class="st1" d="M502,225c0,37,0,74,0,111c-167.2,0-334.4,0-502,0c0-36.7,0-73.3,0-111.1c0.4-1.2,0.7-1.3,1.1-1.3
	c0.2,0.6,0.5,0.7,1.3,0.5c165.2-0.1,329.9-0.1,494.7-0.1c1,0,2,0.1,3.2,0.1c0.5-0.2,0.6-0.4,1.1-0.6C502,224.2,502,224.6,502,225z"
	/>
<path class="st2" d="M1.1,223.4c-0.4,0.1-0.7,0.3-1.1,1c0-36.1,0-72.8,0.2-109.6c0.7-0.6,1.2-1.1,1.7-1.6c2.2-0.1,4.3-0.2,6.5-0.2
	c163.6,0,327.1,0,491,0c0.3,0,0.5,0.3,0.5,0.4c0,0.1,0.3,0.3,0.3,0.3s0.3-0.1,0.7-0.1c0.4-0.3,0.4-0.5,0.5-0.8
	c0.2-0.1,0.3-0.2,0.5-0.5c0,37.1,0,74.4,0,112.3c0,0.1,0-0.3-0.6-1c-0.6-0.3-0.8-0.3-0.9-0.3c-0.4,0.1-0.5,0.3-0.7,0.7
	c-0.1,0.1,0.2,0.3,0.2,0.3c-1-0.1-2-0.2-3-0.2c-164.7,0-329.5,0-494.6,0c-0.3,0-0.5-0.3-0.5-0.4c-0.2-0.3-0.4-0.4-0.8-0.4
	C1.1,223.2,1.1,223.4,1.1,223.4z"/>
<path class="st3" d="M2,113.1c-0.6,0.6-1.1,1-1.9,1.2C0,114,0,113.5,0.1,113.1c0.1-0.4,0.4-0.2,0.8-0.1c0.6,0,0.9-0.1,1.1-0.2
	C2,112.8,2.2,113,2,113.1z"/>
<path class="st2" d="M0.5,112.9c0,0-0.3-0.2-0.4,0C0,113,0,112.5,0,112.2s0,0.1,0.1,0.3C0.2,112.7,0.5,112.9,0.5,112.9z"/>
<path class="st4" d="M0.9,113c-0.4-0.1-0.7-0.3-0.7-0.5c0.4-0.1,0.8-0.1,1.5,0.1C1.8,112.9,1.5,113,0.9,113z"/>
<path class="st4" d="M501.2,112.8c0.2,0.3,0.2,0.5-0.3,0.6c-0.5-0.2-1-0.1-1-0.1s-0.1-0.3,0-0.3
	C500.3,112.6,500.7,112.6,501.2,112.8z"/>
<path class="st5" d="M1.1,223.6c0-0.2,0-0.4,0.2-0.1c0.4,0.3,0.6,0.3,0.8,0.3c0,0,0.1,0.3,0,0.3C1.6,224.3,1.3,224.2,1.1,223.6z"/>
<path class="st5" d="M500.6,223.2c0,0,0.2,0,0.2,0.1c0.1,0.4-0.1,0.7-0.6,0.9c-0.2,0-0.5-0.1-0.2-0.3
	C500.5,223.6,500.6,223.4,500.6,223.2z"/>
<path class="st3" d="M499.9,113.3c0-0.1,0.4-0.2,0.6,0c0.1,0.2-0.2,0.3-0.2,0.3S500,113.5,499.9,113.3z"/>
<path class="st6" d="M2,223.7c-0.1,0.1-0.3,0.1-0.6-0.2C1.5,223.2,1.8,223.3,2,223.7z"/>
<path class="st6" d="M500.5,223.2c0.1,0.2,0,0.4-0.3,0.5C500,223.5,500.1,223.3,500.5,223.2z"/>
</svg>
