<?xml version="1.0" encoding="utf-8"?>
<!-- Generator: Adobe Illustrator 26.5.3, SVG Export Plug-In . SVG Version: 6.00 Build 0)  -->
<svg version="1.1" id="Layer_1" xmlns="http://www.w3.org/2000/svg" xmlns:xlink="http://www.w3.org/1999/xlink" x="0px" y="0px"
	 viewBox="0 0 612 307.2" style="enable-background:new 0 0 612 307.2;" xml:space="preserve">
<style type="text/css">
	.st0{fill:#C8102E;}
	.st1{fill:#FFFFFF;}
	.st2{fill:#012169;}
	.st3{fill:#C8112F;}
	.st4{fill:#DA6074;}
	.st5{fill:#566B9B;}
</style>
<path class="st0" d="M336.8,307.2c-20.3,0-40.7,0-61.1-0.1c-0.1-40.8-0.1-81.5-0.1-122.3c-91.9,0-183.6,0-275.4,0
	c0-20.3,0-40.7,0.1-61.1c91.8-0.1,183.5-0.1,275.3-0.1c0-40.9,0-81.6,0-122.4c20.3,0,40.7,0,61.1,0.1c0.1,40.8,0.1,81.5,0.1,122.3
	c91.9,0,183.6,0,275.4,0c0,20.3,0,40.7-0.1,61.1c-91.8,0.1-183.5,0.1-275.3,0.1C336.8,225.7,336.8,266.5,336.8,307.2z"/>
<path class="st1" d="M275.5,1.2c0.1,40.8,0.1,81.5,0.1,122.4c-91.8,0-183.5,0-275.3,0c-0.1-6.7-0.1-13.4,0-20.2
	c44.5-0.1,89-0.1,133.4-0.1c0.5,0,1,0,1.6,0c0.1,0,0.2-0.1,0.3-0.1c-0.1,0-0.2,0-0.3-0.1C90.6,80.6,46,58.3,1.4,36
	c-0.4-0.2-0.8-0.3-1.2-0.4c0-3.8,0-7.5,0.1-11.4c0.2-0.1,0.4,0,0.5,0.1C13.4,30.6,26,36.9,38.6,43.2c39.6,19.8,79.2,39.6,118.8,59.4
	c0.6,0.3,1.3,0.6,2,0.6c14.7,0,29.5,0,44.3,0c0.1,0,0.2-0.1,0.3-0.1c-0.1,0-0.2-0.1-0.3-0.2C137.8,70,72,37.1,6.2,4.2
	c-1.9-1-3.8-2-5.7-3c22.7,0,45.4,0,68.3,0.1c0.6,0.3,1.1,0.5,1.5,0.7c22.7,11.3,45.3,22.7,68,34c38.5,19.3,77.1,38.5,115.6,57.8
	c0.4,0.2,0.8,0.4,1.3,0.6c0-0.6,0-1.1,0-1.6c0-30.1,0-60.1,0-90.2c0-0.5,0-1,0.1-1.4C262,1.2,268.7,1.2,275.5,1.2z"/>
<path class="st1" d="M337,307.2c-0.1-40.8-0.1-81.5-0.1-122.4c91.8,0,183.5,0,275.3,0c0.1,6.7,0.1,13.4,0,20.2
	c-44.5,0.1-88.9,0.1-133.3,0.1c-0.6,0-1.1,0-1.7,0c-0.1,0-0.2,0.1-0.2,0.1c0.1,0,0.2,0,0.3,0.1c44.7,22.4,89.4,44.8,134.1,67.1
	c0.3,0.1,0.6,0.2,1,0.3c0,3.8,0,7.5-0.1,11.4c-16-7.8-31.9-15.7-47.7-23.7c-36.5-18.2-72.9-36.5-109.4-54.7c-0.6-0.3-1.3-0.6-2-0.6
	c-14.7,0-29.5,0-44.3,0c-0.1,0-0.2,0.1-0.3,0.1c0.1,0,0.2,0.1,0.3,0.2c67.3,33.7,134.6,67.3,201.9,101c0.5,0.2,0.9,0.5,1.3,0.8
	c-22.7,0-45.4,0-68.3-0.1c-62.2-31.1-124.3-62.1-186.5-93.2c0,0.7,0,1.2,0,1.6c0,30.1,0,60.1,0,90.2c0,0.5,0,1-0.1,1.4
	C350.5,307.2,343.8,307.2,337,307.2z"/>
<path class="st1" d="M612.2,123.5c-91.8,0.1-183.5,0.1-275.4,0.1c0-40.8,0-81.5,0-122.3c6.7-0.1,13.4-0.1,20.2,0
	c0.1,31.1,0.1,62.1,0.1,93.2c0.6-0.3,1-0.5,1.4-0.7c58.1-29,116.2-58.1,174.3-87.1c3.6-1.8,7.1-3.6,10.7-5.5c7.5,0,15,0,22.6,0.1
	c-0.1,0.2-0.3,0.3-0.5,0.4c-67.1,33.6-134.2,67.1-201.3,100.7c-0.4,0.2-0.8,0.5-1.3,0.7c-0.1,0-0.2,0.1-0.2,0.2c0.1,0,0.2,0,0.4,0
	c14.5,0,28.9,0,43.4,0c1,0,2.1-0.3,3.1-0.7C476.8,69,543.8,35.4,610.9,1.9c0.4-0.2,0.7-0.4,1.1-0.7c0.1,0.3,0.2,0.6,0.2,1
	c0,11.1,0,22.2-0.1,33.3c-0.2,0.1-0.4,0.2-0.5,0.3C567.1,58,522.5,80.3,478,102.6c-0.3,0.1-0.5,0.3-0.8,0.5c-0.1,0-0.2,0.1-0.2,0.2
	c0.1,0,0.2,0,0.4,0c44.5,0,89,0,133.4,0c0.5,0,1,0,1.5,0.1C612.2,110,612.2,116.7,612.2,123.5z"/>
<path class="st1" d="M0.2,185c91.8-0.1,183.5-0.1,275.4-0.1c0,40.8,0,81.5,0,122.3c-6.7,0.1-13.4,0.1-20.2,0
	c-0.1-31.1-0.1-62-0.1-93.2c-0.6,0.3-1,0.5-1.4,0.7c-57.5,28.7-114.9,57.4-172.4,86.2c-4.2,2.1-8.4,4.3-12.6,6.4
	c-7.5,0-15,0-22.6-0.1c64.7-32.5,129.6-64.9,194.4-97.3c2.9-1.5,5.8-3,8.7-4.4c0.1-0.1,0.2-0.1,0.2-0.2c-0.1,0-0.2,0-0.4,0
	c-14.6,0-29.1,0-43.6,0c-0.9,0-1.8,0.2-2.6,0.6C135.8,239.5,68.6,273,1.5,306.6c-0.3,0.2-0.7,0.4-1,0.6c-0.1-0.3-0.2-0.6-0.2-1
	c0-11.1,0-22.2,0.1-33.3c0.4-0.2,0.7-0.3,1-0.5c44.4-22.2,88.8-44.4,133.1-66.6c0.3-0.2,0.6-0.4,1-0.5c0.1-0.1,0.2-0.1,0.2-0.2
	c-0.1,0-0.2,0-0.4,0c-44.5,0-89,0-133.4,0c-0.5,0-1,0-1.5-0.1C0.2,198.5,0.2,191.8,0.2,185z"/>
<path class="st2" d="M255.2,1.2c0.1,0.5,0.1,1,0.1,1.4c0,30.1,0,60.1,0,90.2c0,0.5,0,1,0,1.6c-0.5-0.2-0.9-0.4-1.3-0.6
	c-38.5-19.3-77.1-38.5-115.6-57.8C115.6,24.7,93,13.4,70.3,2c-0.5-0.2-0.9-0.4-1.4-0.7C130.9,1.2,193,1.2,255.2,1.2z"/>
<path class="st2" d="M543.5,1.2c-3.5,1.8-7,3.7-10.6,5.5c-58.1,29-116.2,58.1-174.3,87.1c-0.4,0.2-0.8,0.4-1.4,0.7
	c0-31.1,0-62.1,0-93.2C419.2,1.2,481.3,1.2,543.5,1.2z"/>
<path class="st2" d="M69,307.2c4.1-2.1,8.3-4.3,12.5-6.4c57.5-28.7,114.9-57.5,172.4-86.2c0.4-0.2,0.8-0.4,1.4-0.7
	c0,31.1,0,62.1,0,93.2C193.2,307.2,131.2,307.2,69,307.2z"/>
<path class="st2" d="M357.3,307.2c-0.1-0.5-0.1-1-0.1-1.4c0-30.1,0-60.1,0-90.2c0-0.5,0-1,0-1.6c62.2,31.1,124.3,62.1,186.4,93.2
	C481.5,307.2,419.5,307.2,357.3,307.2z"/>
<path class="st3" d="M249.3,205.4c-2.9,1.5-5.8,3-8.7,4.4c-64.8,32.4-129.7,64.8-194.5,97.3c-15.2,0.1-30.3,0.1-45.6,0.1
	c0.2-0.2,0.5-0.4,0.9-0.6C68.6,273,135.8,239.5,203,205.9c0.8-0.4,1.7-0.6,2.6-0.6c14.5,0,29,0,43.6,0
	C249.3,205.3,249.3,205.4,249.3,205.4z"/>
<path class="st3" d="M611.9,1.2c-0.3,0.2-0.6,0.5-1,0.7C543.8,35.4,476.8,69,409.7,102.5c-0.9,0.5-2,0.7-3.1,0.7
	c-14.4,0-28.8,0-43.4,0c-0.1,0-0.1-0.1-0.1-0.1c0.4-0.2,0.8-0.5,1.2-0.7C431.5,68.8,498.6,35.3,565.7,1.7c0.2-0.1,0.4-0.2,0.7-0.4
	C581.5,1.2,596.6,1.2,611.9,1.2z"/>
<path class="st2" d="M477.2,103.1c0.3-0.2,0.5-0.4,0.8-0.5c44.6-22.3,89.1-44.6,133.7-66.8c0.1-0.1,0.3-0.1,0.5-0.1
	c0.1,22.5,0.1,45,0.1,67.6c-0.5,0.1-1,0.1-1.5,0.1c-44.4,0-88.8,0-133.4-0.1C477.2,103.2,477.2,103.1,477.2,103.1z"/>
<path class="st2" d="M612.2,272.7c-0.3,0-0.7,0-1-0.2c-44.7-22.3-89.3-44.7-134-67.1c0-0.1-0.1-0.2-0.1-0.2c0.6,0,1.1,0,1.7,0
	c44.4,0,88.8,0,133.3,0C612.2,227.6,612.2,250.1,612.2,272.7z"/>
<path class="st2" d="M0.2,35.8c0.4,0,0.8,0.1,1.2,0.3C46,58.3,90.6,80.6,135.2,103c0,0.1,0,0.2,0,0.2c-0.5,0-1,0-1.6,0
	c-44.4,0-88.8,0-133.4,0C0.2,80.8,0.2,58.4,0.2,35.8z"/>
<path class="st2" d="M0.2,205.3c0.5-0.1,1-0.1,1.5-0.1c44.4,0,88.8,0,133.4,0.1c0.1,0.1,0.2,0.1,0.2,0.1c-0.3,0.2-0.6,0.4-0.9,0.5
	C90,228.1,45.7,250.3,1.3,272.5c-0.3,0.1-0.6,0.3-1,0.3C0.2,250.3,0.2,227.9,0.2,205.3z"/>
<path class="st3" d="M612.1,307.2c-0.6-0.3-1-0.5-1.4-0.8c-67.3-33.6-134.5-67.3-201.8-101c0-0.1,0-0.2,0-0.2c14.7,0,29.5,0,44.2,0
	c0.7,0,1.4,0.3,2,0.6c36.5,18.2,72.9,36.4,109.4,54.7c15.9,7.9,31.8,15.9,47.7,23.8C612.2,291.9,612.2,299.6,612.1,307.2z"/>
<path class="st3" d="M0.4,1.2c2,1,3.9,2,5.8,3C72,37.1,137.8,70,203.6,103c0,0.1,0,0.2,0,0.2c-14.7,0-29.5,0-44.2,0
	c-0.7,0-1.4-0.3-2-0.6C117.8,82.8,78.2,63,38.6,43.2C26,36.9,13.4,30.6,0.8,24.4c-0.1-0.1-0.3-0.1-0.5-0.2C0.2,16.5,0.2,8.9,0.4,1.2
	z"/>
<path class="st4" d="M203.7,103.3c-0.1,0-0.1-0.1,0-0.2c0.1,0,0.2,0,0.3,0.1C203.9,103.2,203.8,103.3,203.7,103.3z"/>
<path class="st5" d="M135.3,103.3c-0.1,0-0.1-0.1-0.1-0.1c0.1,0,0.2,0,0.3,0C135.5,103.2,135.5,103.3,135.3,103.3z"/>
<path class="st4" d="M408.8,205.2c0.1,0,0.1,0.1,0,0.2c-0.1,0-0.2,0-0.3-0.1C408.6,205.3,408.6,205.2,408.8,205.2z"/>
<path class="st5" d="M477.1,205.2c0.1,0,0.1,0.1,0.1,0.1c-0.1,0-0.2,0-0.3,0C477,205.3,477,205.2,477.1,205.2z"/>
<path class="st5" d="M477.1,103.1c0.1,0,0.1,0.1,0.1,0.1c-0.1,0-0.2,0-0.3,0C477,103.2,477,103.1,477.1,103.1z"/>
<path class="st4" d="M363.1,103.1c0.1,0,0.1,0.1,0.1,0.1c-0.1,0-0.2,0-0.3,0C362.9,103.2,363,103.1,363.1,103.1z"/>
<path class="st5" d="M135.4,205.4c-0.1,0-0.1-0.1-0.1-0.1c0.1,0,0.2,0,0.3-0.1C135.5,205.3,135.5,205.3,135.4,205.4z"/>
<path class="st4" d="M249.4,205.4c-0.1,0-0.1-0.1-0.1-0.1c0.1,0,0.2-0.1,0.3-0.1C249.6,205.3,249.5,205.4,249.4,205.4z"/>
</svg>
