<?xml version="1.0" encoding="utf-8"?>
<!-- Generator: Adobe Illustrator 26.5.3, SVG Export Plug-In . SVG Version: 6.00 Build 0)  -->
<svg version="1.1" id="Layer_1" xmlns="http://www.w3.org/2000/svg" xmlns:xlink="http://www.w3.org/1999/xlink" x="0px" y="0px"
	 viewBox="0 0 612 408.8" style="enable-background:new 0 0 612 408.8;" xml:space="preserve">
<style type="text/css">
	.st0{fill:#002654;}
	.st1{fill:#CE1126;}
	.st2{fill:#FFFFFF;}
</style>
<path class="st0" d="M204.6,408.8c-68,0-136.1,0-204.1,0c0-135.9,0-271.8,0-407.8c67.9,0,135.8,0,203.9,0.2c0.2,0.5,0.2,0.9,0.2,1.2
	c0,134.8,0,269.5,0,404.3C204.5,407.4,204.6,408.1,204.6,408.8z"/>
<path class="st1" d="M408.3,1c68,0,136.1,0,204.1,0c0,135.9,0,271.8,0,407.8c-67.9,0-135.8,0-203.9-0.2c-0.2-0.5-0.2-0.9-0.2-1.2
	c0-134.8,0-269.5,0-404.3C408.4,2.4,408.4,1.7,408.3,1z"/>
<path class="st2" d="M408.1,1c0.3,0.7,0.3,1.4,0.3,2.1c0,134.8,0,269.5,0,404.3c0,0.3,0,0.6-0.1,1.2c-67.8,0.2-135.5,0.2-203.5,0.2
	c-0.3-0.7-0.3-1.4-0.3-2.1c0-134.8,0-269.5,0-404.3c0-0.3,0-0.6,0.1-1.2C272.4,1,340.1,1,408.1,1z"/>
</svg>
