<?xml version="1.0" encoding="utf-8"?>
<!-- Generator: Adobe Illustrator 26.5.3, SVG Export Plug-In . SVG Version: 6.00 Build 0)  -->
<svg version="1.1" id="Layer_1" xmlns="http://www.w3.org/2000/svg" xmlns:xlink="http://www.w3.org/1999/xlink" x="0px" y="0px"
	 viewBox="0 0 538.8 612" style="enable-background:new 0 0 538.8 612;" xml:space="preserve">
<style type="text/css">
	.st0{fill:#E34F26;}
	.st1{fill:#EF652A;}
	.st2{fill:#EBEBEB;}
	.st3{fill:#FFFFFF;}
</style>
<path class="st0" d="M273.1,612c-2.6,0-5.2,0-7.9-0.2c-1.9-0.9-3.7-1.6-5.5-2.2c-14.8-4.2-29.6-8.3-44.3-12.5
	c-11.3-3.2-22.6-6.4-34-9.6c-14.8-4.2-29.6-8.3-44.3-12.5c-11.3-3.2-22.6-6.4-34-9.6c-16.1-4.5-32.2-9.2-48.3-13.5
	c-4.4-1.2-6.6-2.3-6.6-7.7c0.1-8.5-1.4-17-2.1-25.5c-0.4-4.9-0.8-9.8-1.3-14.7c-0.8-8.1-1.6-16.2-2.3-24.3
	c-0.5-5.4-0.8-10.8-1.3-16.2c-0.7-8.3-1.6-16.6-2.3-24.9c-0.5-5.1-0.8-10.2-1.3-15.3c-0.7-8.1-1.6-16.2-2.3-24.3
	c-0.5-5.2-0.8-10.4-1.3-15.6c-0.7-8.2-1.6-16.4-2.3-24.6c-0.5-5.3-0.8-10.6-1.2-15.9c-0.7-8.3-1.6-16.6-2.3-24.9
	c-0.5-5.1-0.8-10.2-1.3-15.3c-0.7-8.1-1.6-16.2-2.3-24.3c-0.5-5.2-0.8-10.4-1.3-15.6c-0.7-7.8-1.6-15.6-2.3-23.4
	c-0.5-5.5-0.8-11-1.3-16.5c-0.7-8.5-1.6-17-2.3-25.5c-0.5-5.1-0.8-10.2-1.3-15.3c-0.7-8.2-1.6-16.4-2.3-24.6
	c-0.5-5.1-0.8-10.2-1.3-15.3c-0.7-7.8-1.6-15.6-2.3-23.4c-0.5-5.5-0.8-11-1.2-16.5C8.2,93.3,7.4,84.7,6.6,76
	c-0.3-2.8-0.4-5.7-0.7-8.5c-0.8-7.8-1.6-15.6-2.3-23.4c-0.5-5.5-0.8-11-1.3-16.5C1.6,18.4,0.8,9.2,0,0c179.5,0,359,0,538.8,0.3
	c-0.3,8.7-0.9,17.2-1.5,25.6c-0.4,4.7-0.8,9.4-1.2,14.1c-0.8,7.9-1.6,15.8-2.3,23.7c-0.5,5.4-0.8,10.8-1.2,16.2
	c-0.7,8.5-1.6,17-2.4,25.5c-0.4,4.8-0.8,9.6-1.2,14.4c-0.7,7.7-1.6,15.4-2.3,23.1c-0.5,5.8-0.8,11.6-1.3,17.4
	c-0.9,10.9-2,21.7-3,32.6c-0.2,2.6-0.4,5.3-0.7,7.9c-0.8,7.7-1.6,15.4-2.3,23.1c-0.5,5.5-0.8,11-1.2,16.5c-0.7,8.5-1.6,17-2.4,25.5
	c-0.4,4.9-0.8,9.8-1.2,14.7c-0.8,8-1.6,16-2.3,24c-0.5,5.5-0.8,11-1.2,16.5c-0.7,8.5-1.6,17-2.4,25.5c-0.4,4.9-0.8,9.8-1.3,14.7
	c-0.8,8.1-1.6,16.2-2.3,24.3c-0.5,5.2-0.8,10.4-1.3,15.6c-0.7,7.9-1.6,15.8-2.3,23.7c-0.5,5.6-0.8,11.2-1.2,16.8
	c-0.7,8.5-1.6,17-2.4,25.5c-0.4,4.9-0.8,9.8-1.3,14.7c-0.8,8.1-1.6,16.2-2.3,24.3c-0.5,5.2-0.8,10.4-1.2,15.6
	c-0.7,8.4-1.7,16.8-2.3,25.2c-0.1,2.1-0.8,3-2.7,3.5c-14.9,4.1-29.8,8.3-44.7,12.4c-17.7,4.9-35.4,9.9-53.1,14.9
	c-19.2,5.4-38.4,10.8-57.5,16.2c-19.6,5.5-39.1,10.9-58.7,16.4C273.7,610.9,273.5,611.6,273.1,612 M268.5,424.2
	c-24.2-6.5-48.3-13.1-72.5-19.6c-1.7-0.5-2.4-1.1-2.6-2.9c-0.6-8.2-1.4-16.5-2.2-24.7c-0.8-8.9-1.6-17.8-2.4-26.7
	c-22.4,0-44.6,0-66.9,0c0.1,1.2,0.1,2.2,0.2,3.1c1.1,14,2.2,28,3.3,42c1.6,19.6,3.1,39.3,4.6,58.9c0.1,1.7,0.7,2.4,2.3,2.8
	c25.7,7,51.4,14.1,77,21.2c19.8,5.5,39.7,10.9,59.9,16.4c0.3,0,0.5,0,0.8,0.6c0,22.7,0,45.5,0,68.6c1.5-0.3,2.4-0.5,3.2-0.7
	c32.4-8.9,64.9-17.8,97.3-26.7c24.9-6.8,49.7-13.7,74.6-20.5c2.1-0.6,3-1.5,3.2-3.6c0.9-10.3,1.9-20.6,2.8-30.8
	c0.7-7.7,1.3-15.4,2-23.2c0.9-10.3,1.9-20.6,2.8-30.8c0.7-7.6,1.3-15.2,2-22.9c0.9-10.4,1.9-20.8,2.8-31.1c0.7-7.6,1.3-15.2,2-22.9
	c0.7-8,1.5-16,2.2-24c0.7-7.7,1.3-15.4,2-23.2c0.7-8,1.5-16,2.2-24c0.7-7.7,1.3-15.4,2-23.2c0.9-10.2,1.9-20.4,2.8-30.6
	c0.7-7.8,1.3-15.6,2-23.4c0.7-7.9,1.4-15.8,2.1-23.7c0.7-7.6,1.3-15.2,2-22.8c0.7-7.9,1.5-15.8,2.2-23.7c0.7-7.7,1.3-15.4,2-23.2
	c0.9-10,1.9-20,2.8-30c0.9-10.2,1.6-20.4,2.5-30.6c0.4-4.1,0.5-4.1-3.7-4.1c-70.5,0-141,0-211.5,0c-4.2,0-4.2,0-4.2,4.4
	c0,21.2,0,42.4-0.4,63.7c-0.3,0-0.5,0.1-1.3,0c-55.9,0-111.9,0-168.3,0c6.1,68.3,12.2,136.3,18.2,204.4c1.3,0,2.2,0,3.1,0
	c48.4,0,96.8,0,145.2,0c0.8,0,1.6-0.1,2.8,0c0.3,0,0.5,0.1,0.8,0.7c0,35.5,0,70.9-0.2,106.6C269.6,424.1,269.3,424.2,268.5,424.2z"
	/>
<path class="st1" d="M270.1,112.2c0-21.2,0-42.4,0-63.6c0-4.4,0-4.4,4.2-4.4c70.5,0,141,0,211.5,0c4.2,0,4.1,0,3.7,4.1
	c-0.9,10.2-1.6,20.4-2.5,30.6c-0.9,10-1.9,20-2.8,30c-0.7,7.7-1.3,15.4-2,23.2c-0.7,7.9-1.4,15.8-2.2,23.7c-0.7,7.6-1.3,15.2-2,22.8
	c-0.7,7.9-1.4,15.8-2.1,23.7c-0.7,7.8-1.3,15.6-2,23.4c-0.9,10.2-1.9,20.4-2.8,30.6c-0.7,7.7-1.3,15.4-2,23.2c-0.7,8-1.5,16-2.2,24
	c-0.7,7.7-1.3,15.4-2,23.2c-0.7,8-1.5,16-2.2,24c-0.7,7.6-1.3,15.2-2,22.9c-0.9,10.4-1.9,20.8-2.8,31.1c-0.7,7.6-1.3,15.2-2,22.9
	c-0.9,10.3-1.9,20.6-2.8,30.8c-0.7,7.7-1.3,15.4-2,23.2c-0.9,10.3-1.9,20.6-2.8,30.8c-0.2,2.1-1.1,3.1-3.2,3.6
	c-24.9,6.8-49.7,13.7-74.6,20.5c-32.4,8.9-64.9,17.8-97.3,26.7c-0.8,0.2-1.7,0.4-3.2,0.7c0-23.1,0-45.8,0.1-69
	c45.1-12.9,90-25.3,135-37.7c1.7-0.5,2.4-1.1,2.6-2.9c1.1-12.4,2.3-24.8,3.4-37.2c1.7-19.2,3.3-38.5,5-57.7
	c1.7-19.6,3.4-39.3,5.2-58.9c1.1-12.5,2.3-25,3.5-37.5c0.5-4.8,1.2-9.6,1.8-14.5c-1.5,0-2.7,0-3.9,0c-49.7,0-99.4,0-149.1,0
	c-1.2,0-2.4-0.1-3.6-0.4c0-23.1,0-46,0.3-68.9c54.2,0,108.2,0,162.2,0c2.1-22.5,4.2-44.6,6.3-67c-1.9,0-3.1,0-4.2,0
	c-53.7,0-107.4,0-161,0C272.5,112.3,271.3,112.2,270.1,112.2z"/>
<path class="st2" d="M269,316.6c-0.8,0-1.6,0.1-2.4,0.1c-48.4,0-96.8,0-145.2,0c-0.9,0-1.8,0-3.1,0c-6.1-68.1-12.1-136-18.2-204.4
	c56.5,0,112.4,0,168.6,0.3c0.3,22.4,0.3,44.4,0,66.5c-31.5,0-62.7,0-94.2,0c2,23.3,4,46.3,6,69.3c8.7,0,17.1,0,25.4,0
	c21,0,42,0.1,63,0.4C269,271.7,269,294.1,269,316.6z"/>
<path class="st3" d="M269.2,316.7c-0.2-22.5-0.2-45,0-67.7c0.5-0.4,0.7-0.4,1-0.4c1.2,0,2.4,0.1,3.6,0.1c49.7,0,99.4,0,149.1,0
	c1.2,0,2.4,0,3.9,0c-0.6,5-1.4,9.8-1.8,14.5c-1.2,12.5-2.4,25-3.5,37.5c-1.8,19.6-3.5,39.3-5.2,58.9c-1.7,19.2-3.3,38.5-5,57.7
	c-1.1,12.4-2.3,24.8-3.4,37.2c-0.2,1.8-0.9,2.4-2.6,2.9c-45,12.4-89.9,24.8-135,37.4c-0.4,0.2-0.7,0.2-1.1-0.2
	c-0.2-23.6-0.2-46.9-0.2-70.1c0.3-0.1,0.6-0.3,1.3-0.5c23.1-6.2,45.8-12.3,68.5-18.4c5.6-1.5,5.5-1.5,6-7.3
	c1.7-17.9,3.4-35.8,5.1-53.7c0.9-9.1,1.7-18.2,2.6-27.6c-1.1,0-2.1,0-3.1,0c-7.1,0-14.1,0-21.2,0c-19.4,0-38.8,0.1-58.2,0.1
	C269.9,316.8,269.6,316.7,269.2,316.7z"/>
<path class="st2" d="M268.7,424.3c0.2,23.3,0.2,46.6,0.2,70.1c-19.8-5.2-39.7-10.6-59.5-16c-25.7-7.1-51.4-14.2-77-21.2
	c-1.6-0.4-2.2-1.2-2.3-2.8c-1.5-19.6-3.1-39.3-4.6-58.9c-1.1-14-2.2-28-3.3-42c-0.1-1-0.1-2-0.2-3.1c22.3,0,44.4,0,66.9,0
	c0.8,8.9,1.6,17.8,2.4,26.7c0.7,8.2,1.5,16.4,2.2,24.7c0.1,1.8,0.8,2.5,2.6,2.9C220.2,411.1,244.3,417.7,268.7,424.3z"/>
<path class="st3" d="M269,179.2c0-22.1,0-44.1,0-66.5c0.3-0.3,0.5-0.3,1-0.4c1.4,0,2.6,0.1,3.8,0.1c53.7,0,107.4,0,161,0
	c1.2,0,2.4,0,4.2,0c-2.1,22.4-4.2,44.5-6.3,67c-54.1,0-108,0-162.4,0C269.5,179.2,269.2,179.2,269,179.2z"/>
<path class="st1" d="M270.1,317.1c19.4-0.3,38.8-0.3,58.2-0.4c7.1,0,14.1,0,21.2,0c1,0,1.9,0,3.1,0c-0.9,9.4-1.7,18.5-2.6,27.6
	c-1.7,17.9-3.5,35.8-5.1,53.7c-0.5,5.8-0.4,5.8-6,7.3c-22.7,6.1-45.5,12.2-68.4,18.3C270.1,388.3,270.1,352.8,270.1,317.1z"/>
<path class="st0" d="M268.7,179.2c0.5,0,0.8,0,1.3,0.1c0.2,22.9,0.2,45.8,0.2,68.9c-0.3,0.3-0.5,0.3-1,0.4c-21.2,0-42.2,0-63.2-0.1
	c-8.4,0-16.7,0-25.4,0c-2-23.1-4-46-6-69.3C205.9,179.2,237.2,179.2,268.7,179.2z"/>
</svg>
