<?xml version="1.0" encoding="utf-8"?>
<!-- Generator: Adobe Illustrator 26.5.3, SVG Export Plug-In . SVG Version: 6.00 Build 0)  -->
<svg version="1.1" id="Layer_1" xmlns="http://www.w3.org/2000/svg" xmlns:xlink="http://www.w3.org/1999/xlink" x="0px" y="0px"
	 viewBox="0 0 612 407.8" style="enable-background:new 0 0 612 407.8;" xml:space="preserve">
<style type="text/css">
	.st0{fill:#00DC82;}
</style>
<path class="st0" d="M462.3,98.3c3.3,5.8,6.4,11.6,9.8,17.2c2.4,3.9,5.3,7.5,7.6,11.4c2.2,3.6,3.9,7.6,5.8,11.4
	c0.3,0.6,0.3,1.5,0.8,1.7c3.2,1.8,3.5,5.2,4.7,8.6c0.9,2.1,1.5,4,2.5,5.5c1.2,1.7,2.9,3.1,4.4,4.7c0.4,0.4,0.8,0.7,1.1,1.6
	c-0.6,4,1.8,6,4.2,7.9c3.3,5.7,6.4,11.6,9.8,17.2c2.4,4,5.4,7.6,7.7,11.7c1.2,2.2,1.7,4.8,3.6,7.1c0.1,1.9-0.3,3.6,0.3,4.8
	c2,3.8,4.3,7.5,6.5,11.3c2.2,3.8,4.3,7.7,6.5,11.4c1.3,2.1,1.8,5.1,5.2,5.2c0,0,0,0-0.1,0.2c-0.3,3.6,1.8,7,4.8,7.9c0,0,0,0-0.1,0.2
	c-0.3,3.6,1.3,6.1,4.7,7.3c0,0,0.1,0.3,0.1,0.7c0.5,5,3.5,8.5,5.7,12.4c0.2,0.4,1.2,0.3,1.9,0.5c0,0,0,0,0,0.3
	c0.7,3.1-0.1,7,4.6,7.2c0.1,0.2,0.2,0.3,0.3,0.9c0.2,3.7,1.1,6.6,3.7,8.8c0.8,0.7,1.4,1.7,1.9,2.7c3.3,6.2,6.4,12.5,9.8,18.6
	c0.6,1.1,2.3,1.5,3.4,2.2c0,0,0,0-0.1,0.2c-0.3,3.6,1.8,7,4.8,7.9c0,0,0,0-0.1,0.2c-0.3,3.6,1.3,6.1,4.7,7.3c0,0,0.1,0.3,0.1,0.7
	c0.5,5,3.5,8.5,5.7,12.4c0.2,0.4,1.2,0.3,1.9,0.5c0,0,0,0,0,0.3c0.7,3.1-0.1,7,4.6,7.2c0.1,0.2,0.2,0.3,0.3,0.9
	c0.5,0.9,0.9,1.3,1.3,1.8c0.2,0.3,0.4,0.7,0.4,1.5c0.4,3.5,0,7.1,4.1,8c0,0.3,0.1,0.6,0,1.3c-1.4,2.4-0.8,3.3,1.5,3.5
	c0,0.5,0,1-0.2,1.8c-0.6,0.6-1,1-1.3,1.3c0.5,0.3,1,0.7,1.5,1c0,2.5,0,5-0.2,7.9c-0.8,1.5-1.3,2.6-1.8,4c0,1,0,1.7-0.1,2.5
	c-2.2,2.7-4,5.3-6.1,7.8c-3.1,3.8-5.8,8.3-9.7,10.9c-4.4,3-10,4.3-15.1,6.4c-1.5,0.6-3,1.4-4.6,2.2c-0.2,0-0.5,0-0.6-0.2
	c-2.2-1.8-2.3-0.1-3,1.4c-74.2,0.1-148.1,0.1-222.1,0.1c-0.7,0-1.4-0.1-2-0.3c-0.5-1.2-1-2.1-1.4-3.3c0.2-0.5,0.4-0.8,0.9-1.2
	c3.8-0.7,5.6-4.1,3.8-7c0.2-0.5,0.4-0.8,0.9-1.2c3.8-0.7,5.6-4.1,3.8-7c0.2-0.5,0.4-0.8,0.9-1.2c3.8-0.7,5.6-4.1,3.8-7
	c0.2-0.5,0.4-0.8,0.9-1.2c3.8-0.7,5.6-4.1,3.8-7c0.2-0.5,0.4-0.8,0.9-1.2c3.8-0.7,5.6-4.1,3.8-7c0.2-0.5,0.4-0.8,0.9-1.2
	c3.8-0.7,5.6-4.1,3.8-7c0.2-0.5,0.4-0.8,0.9-1.2c3.8-0.7,5.6-4.1,3.8-7c0.2-0.5,0.4-0.8,0.9-1.1c2.4,0.3,4.5,0.6,6.7,0.6
	c46.2,0,92.3,0,138.5,0c1.2,0,2.5,0.1,3.7-0.1c3.7-0.4,4.6-2.3,2.8-5.5c-2.2-3.8-4.2-7.8-6.6-11.5c-0.8-1.2-2.6-1.8-4.1-2.7
	c-0.3-0.5-0.4-0.9-0.4-1.5c0.7-3.9-0.4-5.6-4.4-6.7c-0.3-0.5-0.4-0.9-0.4-1.5c-0.2-1.8-0.1-3.5-0.9-4.9c-1.8-3.3-4.1-6.4-6-9.7
	c-5.4-9.4-10.7-18.9-16.1-28.3c-2.9-5-5.6-10.1-8.8-14.9c-0.9-1.4-2.9-2.1-4.7-3.2c-3.2-5.1-6.2-10.2-9.2-15.2c-0.8-1.4-1.2-3-2-4.4
	c-2.3-3.9-4.6-7.7-6.8-11.8c-0.1-1.4-0.1-2.7-0.7-3.7c-3.1-5.5-6.3-10.9-9.5-16.4c-1.5-2.6-3-5.3-4.6-7.8c-1.5-2.3-3.3-4.5-5-6.9
	c-0.9-1.4-1.8-2.6-2.7-3.8c0,0,0,0,0-0.2c-0.7-3.4-1.4-6.5-4.7-7.9c0,0,0,0,0-0.2c-0.4-0.8-0.8-1.3-1.2-2.1c-2.5-4-4.9-7.7-7.3-11.5
	c-2.1-3.4-4.1-6.8-6.2-10.2c-0.3-0.4-1.4-0.4-2.3-0.5c-2.6,1.6-4.6,3.5-3.9,7c-0.2,0.5-0.4,0.8-0.9,1.2c-2.6,1.6-4.6,3.5-3.9,7
	c-0.2,0.5-0.4,0.8-0.9,1.2c-2.6,1.6-4.6,3.5-3.9,7c-2.2,4.1-4.2,8.1-6.5,11.9c-9,15.3-18,30.6-26.9,45.9
	c-9.4,16.1-18.6,32.3-28,48.4c-8.5,14.6-17.3,29-25.6,43.6c-7.6,13.4-15.9,26.3-26.4,37.6c-5.5,5.9-11.7,11.2-18,16.3
	c-5.9,4.8-12.1,9.3-19.6,11.7c-3.1,1-5.7,3.4-8.8,4.6c-4.8,1.9-9.8,3.3-14.7,5c-12.1,4.2-24.7,5.8-37.5,5.9
	c-50.6,0.2-101.3,0.2-151.9-0.1c-5.2,0-10.7-1.3-15.4-3.4c-8.7-3.9-16.3-9.5-19.5-19.3c-0.9-2.7-2.3-5.2-3.6-7.7
	c-0.1-0.1-0.6,0-0.9-0.1c0-6.6,0-13.2,0-20.1c0.4-0.4,1-0.5,1.2-0.7c4-7.7,7.7-15.6,11.9-23.1c5.9-10.6,12.1-20.9,18.2-31.4
	c5.9-10.2,11.9-20.3,17.8-30.5c6.1-10.6,12.2-21.1,18.3-31.7c5.1-8.7,10.1-17.5,15.2-26.2c5.3-9.1,10.7-18.1,16-27.2
	c5.9-10.1,11.8-20.3,17.7-30.5c6.1-10.4,12.2-20.9,18.3-31.3c5.9-10.2,11.8-20.3,17.7-30.5c6.1-10.4,12.2-20.9,18.3-31.3
	c5.9-10.2,11.8-20.4,17.7-30.5c3-5.2,5.8-10.5,9.3-15.4c6.6-9.1,15.2-15.4,26.8-16.3c5.2-0.4,10.6-0.9,15.6,0.1
	c11.4,2.2,20.6,8.3,26.6,18.6c5.1,8.7,10.1,17.4,15.2,26.1c6.7,11.4,13.5,22.7,20.1,34.2c2.7,4.8,5,9.8,7.7,14.5
	c3.3,5.7,7.1,11.1,10.4,16.8c3.9,6.7,7.4,13.7,11.3,20.4c3.8,6.3,7.9,12.4,12.1,19.1c2.3-3.9,4.6-7.8,6.9-11.6
	c8.7-14.8,17.4-29.6,26-44.5c4.1-7.1,7.6-14.7,14.1-20.1c6.5-5.4,13.7-8.9,22.3-10c7.7-0.9,15.1,0.2,22.1,3.1
	c4.7,2,9.5,4.3,12.3,9.7c1.2,1.1,2.2,1.9,3.2,2.6c0,0,0.2,0.1,0.1,0.4c0.5,1.2,1,2,1.6,3.1c1.8,3.7,3.3,7.3,5.3,10.6
	C459.2,95.4,460.9,96.8,462.3,98.3 M155.7,218.6c-5.4,9.4-10.7,18.9-16.2,28.2c-3.9,6.7-8.2,13.1-12.1,19.8c-5,8.6-9.7,17.4-14.6,26
	c-5.8,10.2-11.7,20.3-17.6,30.5c-3.8,6.5-7.7,12.9-11.9,19.6c0.4,0.8,0.6,1.9,1.3,2.2c1,0.4,2.2,0.3,3.3,0.3c9.9,0,19.7,0,29.6,0
	c22.1,0,44.2,0,66.3-0.1c1.8,0,3.6-1.2,6-1.9c3.9-0.5,7.8-0.8,11.6-1.4c20.5-3,36.3-13.9,48-30.3c7.9-11.2,14.4-23.4,21.4-35.2
	c6.2-10.4,12.2-20.9,18.3-31.3c5.1-8.8,10.4-17.5,15.3-26.5c0.9-1.6,1-4.4,0.2-5.9c-3.3-6.3-7.1-12.2-10.7-18.3
	c-5.7-9.8-11.4-19.7-17.2-29.6c-4-6.9-8.1-13.7-12.1-20.6c-8.4-14.5-16.8-28.9-25.2-43.4c-2.3-4-4.7-7.9-7.3-12.4
	c-1.1,1.7-1.9,2.9-2.6,4.1c-8.3,14.4-16.6,28.8-25,43.2c-8.4,14.5-17,28.9-25.5,43.3c-5.5,9.2-10.9,18.5-16.9,27.8
	C158.7,209.7,156.1,213.3,155.7,218.6z"/>
<path class="st0" d="M612.7,360.5c-2.2,0.1-2.9-0.9-1.4-3c0.4,0,0.8,0.2,1.3,0.1C612.7,358.4,612.7,359.3,612.7,360.5z"/>
<path class="st0" d="M612.7,376.2c-0.5,0.3-0.9,0.3-1.7,0.3c0.2-1.1,0.7-2.2,1.5-3.4C612.7,374,612.7,375,612.7,376.2z"/>
<path class="st0" d="M612.7,364.6c-0.5-0.1-1-0.4-1.5-0.7c0.4-0.3,0.8-0.7,1.3-1C612.7,363.4,612.7,363.9,612.7,364.6z"/>
<path class="st0" d="M583.5,306.8c-1.2-0.5-2.9-1-3.5-2c-3.4-6.1-6.6-12.4-9.8-18.6c-0.5-1-1.1-2-1.9-2.7c-2.6-2.3-3.5-5.1-3.6-8.7
	c1.9,2.5,4,5.2,5.8,8.1c2.4,3.8,4.7,7.7,6.8,11.6C579.5,298.5,581.5,302.6,583.5,306.8z"/>
<path class="st0" d="M542.7,236.8c-3.4,0.1-3.9-2.8-5.2-5c-2.2-3.8-4.3-7.6-6.5-11.4c-2.2-3.8-4.5-7.4-6.5-11.3
	c-0.6-1.2-0.3-2.9-0.3-4.5c0.5,0.3,1.1,0.7,1.4,1.2c1,1.9,1.9,4,3,5.9c3.1,5.2,6.3,10.3,9.3,15.5
	C539.7,230.2,541.2,233.4,542.7,236.8z"/>
<path class="st0" d="M600.5,336c-0.6,0.1-1.7,0.2-1.9-0.2c-2.1-3.9-5.2-7.3-5.7-12.2c1.3,1.3,2.6,2.8,3.6,4.5
	C598,330.5,599.2,333.2,600.5,336z"/>
<path class="st0" d="M559.7,266c-0.6,0.1-1.7,0.2-1.9-0.2c-2.1-3.9-5.2-7.3-5.7-12.2c1.3,1.3,2.6,2.8,3.6,4.5
	C557.2,260.5,558.4,263.1,559.7,266z"/>
<path class="st0" d="M462.3,98.1c-1.4-1.3-3.1-2.7-4.1-4.5c-1.9-3.4-3.5-6.9-5.1-10.6c0.3-0.3,0.4-0.3,0.5-0.3
	C456.5,87.7,459.5,92.8,462.3,98.1z"/>
<path class="st0" d="M588.3,315c-3.1-0.8-5.2-4.1-4.9-7.7C585.1,309.6,586.7,312.2,588.3,315z"/>
<path class="st0" d="M547.5,245c-3.1-0.8-5.2-4.1-4.9-7.7C544.3,239.6,545.9,242.2,547.5,245z"/>
<path class="st0" d="M552.1,252.4c-3.4-1-5-3.4-4.7-7.1C549,247.5,550.6,249.8,552.1,252.4z"/>
<path class="st0" d="M605.1,343.6c-4.8,0-3.9-3.9-4.6-7C602,338.6,603.6,341,605.1,343.6z"/>
<path class="st0" d="M564.3,273.5c-4.8,0-3.9-3.9-4.6-7C561.2,268.6,562.8,270.9,564.3,273.5z"/>
<path class="st0" d="M592.9,322.5c-3.4-1-5-3.4-4.7-7.1C589.8,317.5,591.4,319.9,592.9,322.5z"/>
<path class="st0" d="M497.8,158.6c-1.4-1.3-3.1-2.7-4.3-4.5c-1.1-1.5-1.6-3.4-2.5-5.3c1.8,2.1,3.6,4.5,5.4,6.9
	C497,156.5,497.3,157.5,497.8,158.6z"/>
<path class="st0" d="M611.3,355.8c-4.2-0.7-3.8-4.2-4.2-7.6C608.5,350.5,609.9,353,611.3,355.8z"/>
<path class="st0" d="M503.1,168.1c-2.4-1.7-4.8-3.6-4.2-7.4C500.4,162.9,501.8,165.4,503.1,168.1z"/>
<path class="st0" d="M451.1,79.2c-0.9-0.6-1.9-1.3-2.9-2.3C449.1,77.5,450,78.3,451.1,79.2z"/>
<path class="st0" d="M453.6,82.5c0,0.2-0.2,0.2-0.5,0.2c-0.7-0.8-1.3-1.7-1.7-2.8C452.1,80.5,452.8,81.4,453.6,82.5z"/>
<path class="st0" d="M606.7,346.3c-0.4-0.3-0.8-0.8-1.2-1.5C605.9,345.1,606.3,345.6,606.7,346.3z"/>
<path class="st0" d="M380.3,345.9c-0.1-2.6,1.6-2.8,3.7-2.8c47.2,0,94.4,0,141.6,0c1.3,0,2.6,0,4.4,0c-2.8-4.8-5.3-9-7.8-13.3
	c-0.4-0.8-0.6-1.7-0.8-2.8c1.4,0.6,3.2,1.2,4,2.4c2.4,3.7,4.4,7.7,6.6,11.5c1.8,3.2,0.9,5.1-2.8,5.5c-1.2,0.1-2.5,0.1-3.7,0.1
	c-46.2,0-92.3,0-138.5,0C384.9,346.5,382.7,346.2,380.3,345.9z"/>
<path class="st0" d="M83.4,342.6c1.4,0.1,2.7,0.5,4,0.5c33.7,0,67.4,0,101.4,0.1c-1.5,0.7-3.3,1.9-5.1,1.9
	c-22.1,0.1-44.2,0.1-66.3,0.1c-9.9,0-19.7,0-29.6,0c-1.1,0-2.4,0.1-3.3-0.3C83.8,344.6,83.6,343.4,83.4,342.6z"/>
<path class="st0" d="M516.2,317.1c-0.8-0.4-1.7-0.9-2.2-1.6c-6.3-10.6-12.6-21.1-18.7-31.8c-3.6-6.3-7-12.8-10.6-19.1
	c-1.5-2.7-3.1-5.3-4.6-8.2c1.5,0.8,3.5,1.4,4.4,2.8c3.1,4.8,5.9,9.9,8.8,14.9c5.4,9.4,10.7,18.9,16.1,28.3c1.9,3.3,4.2,6.4,6,9.7
	C516,313.6,516,315.3,516.2,317.1z"/>
<path class="st0" d="M610.5,379.3c-1.2,7.2-7.6,15.4-13.3,19.8c-5.7,4.4-11.9,7-18.7,8.4c-0.9,0.2-2-0.3-3.2-0.8
	c1.4-1,2.8-1.8,4.3-2.4c5.1-2.1,10.7-3.4,15.1-6.4c3.9-2.6,6.6-7.1,9.7-10.9C606.5,384.6,608.4,381.9,610.5,379.3z"/>
<path class="st0" d="M461.8,224.7c-2.4-3.3-4.7-6.8-6.8-10.4c-4.6-7.8-9.1-15.7-13.5-23.8c0.3-0.3,0.4-0.3,0.5-0.3
	c1.7,2.2,3.5,4.4,5,6.7c1.7,2.5,3.1,5.2,4.6,7.8c3.2,5.4,6.4,10.9,9.5,16.4C461.6,222,461.6,223.3,461.8,224.7z"/>
<path class="st0" d="M162.4,206.5c-1.9,3.8-4,7.6-6.4,11.5C156.1,213.3,158.7,209.7,162.4,206.5z"/>
<path class="st0" d="M520.9,325.3c-1.5-1.9-2.8-4-4.2-6.3C520.5,319.6,521.7,321.3,520.9,325.3z"/>
<path class="st0" d="M366,370.3c0.9-2.2,2.2-4.4,3.6-6.7C371.6,366.2,369.8,369.6,366,370.3z"/>
<path class="st0" d="M375.6,354c0.9-2.2,2.2-4.4,3.6-6.7C381.2,349.8,379.4,353.3,375.6,354z"/>
<path class="st0" d="M370.8,362.2c0.9-2.2,2.2-4.4,3.6-6.7C376.4,358,374.6,361.4,370.8,362.2z"/>
<path class="st0" d="M361.3,378.5c0.9-2.2,2.2-4.4,3.6-6.7C366.9,374.3,365.1,377.8,361.3,378.5z"/>
<path class="st0" d="M356.5,386.6c0.9-2.2,2.2-4.4,3.6-6.7C362.1,382.5,360.3,385.9,356.5,386.6z"/>
<path class="st0" d="M351.8,394.8c0.9-2.2,2.2-4.4,3.6-6.7C357.4,390.6,355.6,394.1,351.8,394.8z"/>
<path class="st0" d="M347,403c0.9-2.2,2.2-4.4,3.6-6.7C352.6,398.8,350.8,402.2,347,403z"/>
<path class="st0" d="M439.2,185.9c-1.6-2.3-3.1-4.9-4.7-7.7C437.8,179.4,438.5,182.5,439.2,185.9z"/>
<path class="st0" d="M407.8,169.8c-1,2.2-2.2,4.4-3.6,6.7C403.3,173.3,405.2,171.4,407.8,169.8z"/>
<path class="st0" d="M417.4,153.5c-1,2.2-2.2,4.4-3.6,6.7C412.8,157,414.7,155.1,417.4,153.5z"/>
<path class="st0" d="M412.6,161.6c-1,2.2-2.2,4.4-3.6,6.7C408,165.1,409.9,163.3,412.6,161.6z"/>
<path class="st0" d="M442,189.9c-0.1,0.3-0.2,0.3-0.5,0.3c-0.8-1.2-1.5-2.4-2.2-3.8C440.1,187.3,441,188.5,442,189.9z"/>
<path class="st0" d="M347.5,407.4c-0.8,0.2-1.7,0.2-2.7,0.2c0.3-1.2,0.6-2.1,1-3.2C346.5,405.3,347,406.2,347.5,407.4z"/>
<path class="st0" d="M574.5,406.3c-0.7,0.6-1.4,1-2.4,1.4C572.2,406.2,572.3,404.5,574.5,406.3z"/>
<path class="st0" d="M434.5,177.7c-0.4-0.3-0.8-0.9-1.2-1.7C433.7,176.4,434.1,177,434.5,177.7z"/>
</svg>
