<?xml version="1.0" encoding="utf-8"?>
<!-- Generator: Adobe Illustrator 26.5.3, SVG Export Plug-In . SVG Version: 6.00 Build 0)  -->
<svg version="1.1" id="Layer_1" xmlns="http://www.w3.org/2000/svg" xmlns:xlink="http://www.w3.org/1999/xlink" x="0px" y="0px"
	 viewBox="0 0 340.5 382.4" style="enable-background:new 0 0 340.5 382.4;" xml:space="preserve">
<style type="text/css">
	.st0{fill:#4040B2;}
	.st1{fill:#5F43E9;}
</style>
<path class="st0" d="M234.1,215c0-28.4,0-56.4-0.1-84.4c0-2.2,0.7-3.5,2.5-4.6c15.9-9,31.7-18,47.5-27c17.3-9.9,34.5-19.8,51.8-29.7
	c1.3-0.8,2.8-1.3,4.6-2.2c0,1.5,0,2.5,0,3.6c0,38.1,0,76.3,0,114.4c0,2.1-0.5,3.3-2.5,4.4c-12,6.7-24,13.6-35.9,20.4
	c-11.3,6.5-22.6,13-33.9,19.5c-10.9,6.3-21.9,12.5-32.9,18.7c-0.3,0.1-0.6,0.2-1.3,0.4C234.1,237.3,234.1,226.3,234.1,215z"/>
<path class="st1" d="M175.2,355.1c-10-5.7-19.8-11.2-29.6-16.7c-8.5-4.8-17-9.7-25.5-14.5c-1.8-1-2.9-2.1-2.8-4.4
	c0.1-38.5,0.1-76.9,0.1-115.4c0-0.5,0-1.1,0-2.2c1.4,0.4,2.7,0.5,3.6,1c10.2,5.7,20.3,11.6,30.4,17.4c8.2,4.7,16.5,9.3,24.7,14
	c11.4,6.5,22.8,13.1,34.2,19.6c3.6,2.1,7.4,4,11,6.2c0.9,0.5,1.8,1.8,1.8,2.7c0.1,39.3,0.1,78.6,0.1,117.9c0,0.3-0.1,0.6-0.3,1.5
	C206.9,373.3,191.1,364.3,175.2,355.1z"/>
<path class="st1" d="M41,144.2c-10.5-5.9-20.7-11.7-31-17.5c-2.7-1.5-5.4-2.9-7.9-4.6c-1-0.7-2.1-2-2.1-3.1C0,79.7,0,40.4,0,1.1
	C0,0.9,0.2,0.7,0.4,0c3.5,1.9,7,3.7,10.4,5.7c8.3,4.8,16.6,9.6,24.8,14.4C47.2,26.7,58.8,33.4,70.4,40c11,6.3,21.9,12.6,32.9,18.7
	c1.9,1,2.5,2,2.5,4.1c-0.1,37.6,0,75.2-0.1,112.8c0,4.1-1.5,5.1-5.2,2.9c-13.9-7.9-27.7-16-41.5-24C53.1,151.1,47.2,147.8,41,144.2z
	"/>
<path class="st1" d="M117.5,187.3c0-9.8-0.1-19.5-0.1-29.3c0-29,0-58,0-87c0-1.2,0-2.3,0-4c34.4,19.7,68.4,39.1,102.5,58.9
	c0.8,2.8,1.9,5.1,1.9,7.5c0.1,35.9,0.1,71.9,0,107.8c0,1.4-0.4,2.7-0.9,4c-0.7-0.2-1.3-0.3-1.8-0.5c-17.8-10.1-35.6-20.1-53.4-30.2
	c-12.8-7.3-25.6-14.9-38.4-22.2C124.2,190.5,120.8,189,117.5,187.3z"/>
<path class="st1" d="M117.4,187.5c3.4,1.4,6.8,3,10,4.8c12.8,7.4,25.5,14.9,38.4,22.2c17.8,10.1,35.6,20.2,53.4,30.2
	c0.5,0.3,1,0.3,1.8,0.8c0.2,0.8,0.2,1.3,0.2,1.8c-5.8-3.2-11.6-6.2-17.4-9.5c-8.3-4.7-16.5-9.6-24.8-14.3
	c-11.5-6.6-23.1-13.3-34.7-19.9c-8.2-4.7-16.5-9.2-24.7-13.9C118.8,189.2,118.1,188.4,117.4,187.5z"/>
<path class="st1" d="M221.3,247.5c-0.1-0.7-0.1-1.2-0.1-2c0.2-1.6,0.6-3,0.6-4.3c0-35.9,0.1-71.9,0-107.8c0-2.3-1.1-4.7-1.8-7.3
	c2.6,0.1,3.2,1.7,3.2,4.2c-0.1,38,0,76-0.1,114C223.1,245.7,223.9,247.6,221.3,247.5z"/>
</svg>
